<?xml version="1.0" encoding="UTF-8"?>
<svg version="1.1" xmlns="http://www.w3.org/2000/svg" width="474" height="83">
<path d="M0 0 C156.42 0 312.84 0 474 0 C474 27.39 474 54.78 474 83 C317.58 83 161.16 83 0 83 C0 55.61 0 28.22 0 0 Z " fill="#FBFCFC" transform="translate(0,0)"/>
<path d="M0 0 C52.8 0 105.6 0 160 0 C160 20.46 160 40.92 160 62 C154.72 62 149.44 62 144 62 C140.96732181 58.2596969 139.66107626 56.23795501 138 52 C135.46702326 47.43813885 135.46702326 47.43813885 131 45 C131.01160156 46.14339844 131.02320313 47.28679688 131.03515625 48.46484375 C131.04453288 49.95572754 131.05363321 51.44661309 131.0625 52.9375 C131.07087891 53.69224609 131.07925781 54.44699219 131.08789062 55.22460938 C131.09652441 57.14994313 131.05224333 59.07535581 131 61 C129.07421745 62.92578255 125.67964592 62.17443944 123.125 62.1875 C121.86945313 62.20167969 120.61390625 62.21585938 119.3203125 62.23046875 C116 62 116 62 113 60 C110.94729537 61.84188612 110.94729537 61.84188612 110 64 C108.948125 63.62875 107.89625 63.2575 106.8125 62.875 C102.5010799 61.88549375 101.88549828 62.37351235 98 64 C91.48612819 64.82715832 86.79961637 63.81886711 80.984375 60.890625 C78.5690108 59.8065639 76.61770089 59.66223214 74 60 C73.67 59.01 73.34 58.02 73 57 C72.34 56.67 71.68 56.34 71 56 C71.495 58.475 71.495 58.475 72 61 C70.35 61.99 68.7 62.98 67 64 C67 63.34 67 62.68 67 62 C66.01 62.495 66.01 62.495 65 63 C63.04450744 63.12257461 61.08429382 63.17552388 59.125 63.1875 C58.07570313 63.20167969 57.02640625 63.21585938 55.9453125 63.23046875 C53.01806949 63.00141393 51.55884438 62.29059618 49 61 C47.63875 61.680625 47.63875 61.680625 46.25 62.375 C42.01063491 64.49468255 39.71185344 64.37395662 35 64 C34.195625 63.67 33.39125 63.34 32.5625 63 C28.79356553 61.5291963 25.00656275 61.64404504 21 62 C20.67 62.33 20.34 62.66 20 63 C16.22850652 64.45057442 12.89683042 63.67445142 9 63 C11.66559313 61.22293791 14.0280615 60.12451727 17 59 C16.5359375 57.63875 16.5359375 57.63875 16.0625 56.25 C15.2727737 53.83436662 14.57050703 51.47219715 14 49 C13.113125 49.350625 12.22625 49.70125 11.3125 50.0625 C7.92519461 51.02117134 6.30432401 51.03850183 3 50 C2 49 2 49 1.88647461 47.14233398 C1.89171143 46.35157471 1.89694824 45.56081543 1.90234375 44.74609375 C1.90556641 43.89208984 1.90878906 43.03808594 1.91210938 42.15820312 C1.92048828 41.26037109 1.92886719 40.36253906 1.9375 39.4375 C1.94201172 38.53580078 1.94652344 37.63410156 1.95117188 36.70507812 C1.96299756 34.47002411 1.98093362 32.23500398 2 30 C8.435 29.505 8.435 29.505 15 29 C15.33 25.7 15.66 22.4 16 19 C11.38 19 6.76 19 2 19 C1.67 14.71 1.34 10.42 1 6 C-1.97 5.505 -1.97 5.505 -5 5 C-4.360625 4.731875 -3.72125 4.46375 -3.0625 4.1875 C-0.66868314 3.11332248 -0.66868314 3.11332248 0 0 Z " fill="#FBFBFB" transform="translate(314,0)"/>
<path d="M0 0 C0.90105469 0.00902344 1.80210937 0.01804687 2.73046875 0.02734375 C3.41753906 0.03894531 4.10460937 0.05054687 4.8125 0.0625 C4.82708252 0.72781738 4.84166504 1.39313477 4.85668945 2.07861328 C4.93151365 5.11547114 5.02806016 8.15127091 5.125 11.1875 C5.14755859 12.23421875 5.17011719 13.2809375 5.19335938 14.359375 C5.42665692 22.15742958 5.42665692 22.15742958 8.8125 29.0625 C13.32787908 33.2394483 19.30960498 32.61977682 25.125 32.75 C26.15173828 32.78416016 27.17847656 32.81832031 28.23632812 32.85351562 C30.76160963 32.93573409 33.2865554 33.00496936 35.8125 33.0625 C36.1425 32.0725 36.4725 31.0825 36.8125 30.0625 C37.3075 31.0525 37.3075 31.0525 37.8125 32.0625 C38.70001953 31.91941406 38.70001953 31.91941406 39.60546875 31.7734375 C44.46581821 31.09156139 47.26438628 31.07998889 51.8125 33.0625 C56.52435344 33.43645662 58.82313491 33.55718255 63.0625 31.4375 C63.97 30.98375 64.8775 30.53 65.8125 30.0625 C66.38355469 30.36285156 66.95460938 30.66320312 67.54296875 30.97265625 C70.72056284 32.49855771 73.37289588 32.21706373 76.875 32.125 C83.51895793 31.96465264 83.51895793 31.96465264 86.8125 33.0625 C87.1425 30.7525 87.4725 28.4425 87.8125 26.0625 C88.8025 26.3925 89.7925 26.7225 90.8125 27.0625 C90.8125 28.0525 90.8125 29.0425 90.8125 30.0625 C91.451875 29.815 92.09125 29.5675 92.75 29.3125 C96.12459737 29.03702266 97.06256794 29.51565933 100 31 C106.29980609 34.02935767 111.98778874 33.89602136 118.625 31.9375 C122.24375497 30.94411628 123.57759435 31.29800601 126.8125 33.0625 C127.1425 32.0725 127.4725 31.0825 127.8125 30.0625 C128.8025 29.7325 129.7925 29.4025 130.8125 29.0625 C131.4725 29.3925 132.1325 29.7225 132.8125 30.0625 C132.8125 30.7225 132.8125 31.3825 132.8125 32.0625 C137.4325 31.7325 142.0525 31.4025 146.8125 31.0625 C147.1425 25.7825 147.4725 20.5025 147.8125 15.0625 C152.43486141 16.21809035 152.86554622 16.96005048 155.4375 20.75 C156.02789062 21.59949219 156.61828125 22.44898437 157.2265625 23.32421875 C158.8125 26.0625 158.8125 26.0625 160.8125 32.0625 C166.0925 32.0625 171.3725 32.0625 176.8125 32.0625 C176.8125 38.9925 176.8125 45.9225 176.8125 53.0625 C95.6325 53.0625 14.4525 53.0625 -69.1875 53.0625 C-68.1875 50.0625 -68.1875 50.0625 -65.31640625 47.91015625 C-61.41210488 44.79813328 -60.45396552 41.17747683 -59.125 36.5 C-57.49591115 30.83927882 -56.41486947 27.38580235 -51.1875 24.0625 C-50.1975 25.0525 -49.2075 26.0425 -48.1875 27.0625 C-47.1975 26.0725 -46.2075 25.0825 -45.1875 24.0625 C-45.1875 24.7225 -45.1875 25.3825 -45.1875 26.0625 C-44.671875 26.31 -44.15625 26.5575 -43.625 26.8125 C-41.60429731 27.84875779 -39.69452268 28.95743725 -37.75 30.125 C-30.36772702 34.31451779 -21.74034714 33.9568182 -13.6875 31.8125 C-10.23439831 30.86014062 -10.23439831 30.86014062 -8.03125 28.203125 C-7.7528125 27.49671875 -7.474375 26.7903125 -7.1875 26.0625 C-6.64416016 25.13244141 -6.64416016 25.13244141 -6.08984375 24.18359375 C-4.20475558 19.75241247 -4.527682 14.75809801 -5.1875 10.0625 C-6.62852726 7.62731457 -7.8282656 6.71396408 -10.1875 5.0625 C-9.375 3.125 -9.375 3.125 -8.1875 1.0625 C-5.17259443 0.05753148 -3.14568308 -0.04085303 0 0 Z " fill="#FCFCFC" transform="translate(297.1875,29.9375)"/>
<path d="M0 0 C25.41 0 50.82 0 77 0 C78.32766636 2.65533273 78.3366751 4.98026919 78.5625 7.9375 C78.64628906 8.99839844 78.73007813 10.05929688 78.81640625 11.15234375 C78.94187747 13.09848246 79 15.0498208 79 17 C76 18 76 18 72 18 C72.66 18.33 73.32 18.66 74 19 C73.91321237 21.29239061 73.80504727 23.5839807 73.6875 25.875 C73.62949219 27.15117188 73.57148437 28.42734375 73.51171875 29.7421875 C73.34285156 30.81726563 73.17398438 31.89234375 73 33 C67.50220871 36.66519419 60.52012642 36.22495483 54.0625 36.5625 C53.28326172 36.60568359 52.50402344 36.64886719 51.70117188 36.69335938 C49.80092883 36.79828077 47.90048331 36.8995245 46 37 C46 41.95 46 46.9 46 52 C42.93739915 52.76565021 40.94532188 53.12591844 37.90576172 53.12939453 C37.11168915 53.13254669 36.31761658 53.13569885 35.4994812 53.13894653 C34.65144928 53.1369223 33.80341736 53.13489807 32.9296875 53.1328125 C31.61352951 53.13424759 31.61352951 53.13424759 30.27078247 53.13571167 C28.41994149 53.13639109 26.5690981 53.13455341 24.71826172 53.13037109 C21.8785267 53.12500666 19.03894893 53.13033071 16.19921875 53.13671875 C14.40104132 53.13605818 12.60286398 53.13477745 10.8046875 53.1328125 C9.52656693 53.13584885 9.52656693 53.13584885 8.22262573 53.13894653 C2.22993499 53.1149675 2.22993499 53.1149675 0 52 C0 34.84 0 17.68 0 0 Z " fill="#E1FEFE" transform="translate(0,28)"/>
<path d="M0 0 C0.99 0 1.98 0 3 0 C6.42660865 9.40845468 9.65894082 18.81649078 12.3503418 28.46459961 C13.30538118 31.84619785 14.42452343 34.87053063 16 38 C16 38.99 16 39.98 16 41 C18.64 41.33 21.28 41.66 24 42 C22.25 48.75 22.25 48.75 20 51 C16.9375 51.1875 16.9375 51.1875 14 51 C13.67 50.67 13.34 50.34 13 50 C10.58517587 49.49940084 10.58517587 49.49940084 8 50 C5.97727325 52.4272721 5.02838369 54.00657076 4.9375 57.1875 C5.95460555 59.34327761 5.95460555 59.34327761 9.0625 60.25 C10.031875 60.4975 11.00125 60.745 12 61 C12 61.66 12 62.32 12 63 C-23.97 63 -59.94 63 -97 63 C-97 62.34 -97 61.68 -97 61 C-91.06 60.505 -91.06 60.505 -85 60 C-84.67 53.4 -84.34 46.8 -84 40 C-81.36 40.99 -78.72 41.98 -76 43 C-69.78211039 43.80602273 -64.34005818 42.17065955 -59 39 C-53.81939064 33.80894586 -51.9838287 29.07086703 -51.4375 21.8125 C-51.35371094 20.72582031 -51.26992187 19.63914062 -51.18359375 18.51953125 C-51.12300781 17.68808594 -51.06242187 16.85664062 -51 16 C-50.67 16 -50.34 16 -50 16 C-49.505 20.455 -49.505 20.455 -49 25 C-48.67 22.36 -48.34 19.72 -48 17 C-47.67 17 -47.34 17 -47 17 C-46.90203125 17.78503906 -46.8040625 18.57007812 -46.703125 19.37890625 C-45.77770449 25.88078308 -44.58160022 30.508213 -41 36 C-41 36.66 -41 37.32 -41 38 C-40.29875 38.268125 -39.5975 38.53625 -38.875 38.8125 C-36 40 -36 40 -33.1875 41.625 C-28.33503906 43.71821844 -24.38991319 43.85858467 -19.48828125 42.09765625 C-17.28734969 41.12675865 -15.13520622 40.10714396 -13 39 C-13 39.99 -13 40.98 -13 42 C-8.71 42 -4.42 42 0 42 C0 28.14 0 14.28 0 0 Z " fill="#F8F9F9" transform="translate(202,20)"/>
<path d="M0 0 C14.19 0 28.38 0 43 0 C43 20.46 43 40.92 43 62 C37.72 62 32.44 62 27 62 C23.96732181 58.2596969 22.66107626 56.23795501 21 52 C18.46702326 47.43813885 18.46702326 47.43813885 14 45 C14.01160156 46.14339844 14.02320313 47.28679688 14.03515625 48.46484375 C14.04453288 49.95572754 14.05363321 51.44661309 14.0625 52.9375 C14.07087891 53.69224609 14.07925781 54.44699219 14.08789062 55.22460938 C14.09652441 57.14994313 14.05224333 59.07535581 14 61 C13 62 13 62 10.3125 62.1328125 C9.219375 62.13023438 8.12625 62.12765625 7 62.125 C5.906875 62.12757812 4.81375 62.13015625 3.6875 62.1328125 C1 62 1 62 0 61 C-0.09391296 59.09756238 -0.11743658 57.19161541 -0.11352539 55.28686523 C-0.11344986 54.0656749 -0.11337433 52.84448456 -0.11329651 51.58628845 C-0.10818911 50.24372314 -0.10297311 48.90115825 -0.09765625 47.55859375 C-0.09579199 46.19238842 -0.09436813 44.82618243 -0.09336853 43.4599762 C-0.08954394 39.85798305 -0.07971417 36.25603 -0.06866455 32.65405273 C-0.05844916 28.98096265 -0.05381594 25.30786592 -0.04882812 21.63476562 C-0.03862203 14.42314163 -0.01905038 7.21162785 0 0 Z " fill="#0A1D34" transform="translate(431,0)"/>
<path d="M0 0 C5.64844412 3.037453 9.03632689 7.32265378 11.875 13 C13.10353907 30.60234661 13.10353907 30.60234661 7.875 37 C2.79136781 42.19916928 -2.54313357 44.62296143 -9.6875 45.375 C-13.7405371 44.9328505 -16.42043859 43.66507041 -20.125 42 C-20.15005615 42.57032959 -20.1751123 43.14065918 -20.20092773 43.72827148 C-20.31656549 46.29826157 -20.43943624 48.86785527 -20.5625 51.4375 C-20.62147461 52.78424805 -20.62147461 52.78424805 -20.68164062 54.15820312 C-20.72353516 55.01220703 -20.76542969 55.86621094 -20.80859375 56.74609375 C-20.84525146 57.53685303 -20.88190918 58.3276123 -20.91967773 59.14233398 C-21.125 61 -21.125 61 -22.125 62 C-26.415 62 -30.705 62 -35.125 62 C-35.125 41.54 -35.125 21.08 -35.125 0 C-29.45833333 0 -23.79166667 0 -18.125 0 C-17.3825 -0.33 -16.64 -0.66 -15.875 -1 C-10.02979266 -3.12552994 -5.54408672 -2.47608084 0 0 Z " fill="#0A1D33" transform="translate(139.125,19)"/>
<path d="M0 0 C1.875 1.625 1.875 1.625 3 3 C3 2.01 3 1.02 3 0 C4.97909398 -0.02686553 6.95828971 -0.04633375 8.9375 -0.0625 C10.03964844 -0.07410156 11.14179688 -0.08570312 12.27734375 -0.09765625 C15 0 15 0 16 1 C16.101137 4.01808063 16.13968909 7.01280513 16.1328125 10.03125 C16.13376923 10.93750122 16.13472595 11.84375244 16.13571167 12.77746582 C16.13639353 14.69751047 16.13453882 16.61755741 16.13037109 18.53759766 C16.12502292 21.48735704 16.13031588 24.43696414 16.13671875 27.38671875 C16.13605797 29.24739617 16.13477681 31.1080735 16.1328125 32.96875 C16.13483673 33.85727661 16.13686096 34.74580322 16.13894653 35.66125488 C16.11494988 41.88505012 16.11494988 41.88505012 15 43 C13.06377235 43.073231 11.12499728 43.08358522 9.1875 43.0625 C8.12917969 43.05347656 7.07085937 43.04445312 5.98046875 43.03515625 C4.99691406 43.02355469 4.01335937 43.01195312 3 43 C-0.80116138 42.72924102 -0.80116138 42.72924102 -3.25 44 C-9.06006095 46.11274944 -13.58856083 45.476887 -19.125 43.0625 C-25.1512672 39.83115796 -28.01758349 34.96483302 -31 29 C-31.67329679 21.21861281 -32.15048503 13.61814206 -27.69921875 6.87109375 C-20.27535312 -1.30369162 -10.33479099 -4.56653555 0 0 Z " fill="#081C33" transform="translate(363,19)"/>
<path d="M0 0 C1.11375 0.7425 1.11375 0.7425 2.25 1.5 C2.58 0.84 2.91 0.18 3.25 -0.5 C7.54 -0.5 11.83 -0.5 16.25 -0.5 C16.25 13.69 16.25 27.88 16.25 42.5 C11.96 42.5 7.67 42.5 3.25 42.5 C2.92 41.84 2.59 41.18 2.25 40.5 C1.7653125 40.78875 1.280625 41.0775 0.78125 41.375 C-4.13194747 44.09615552 -8.1317389 45.58001524 -13.75 44.5 C-20.68209688 42.0949868 -25.63279027 38.03676384 -29.0625 31.5 C-31.79429791 24.743578 -32.19239872 17.51150135 -29.71484375 10.62109375 C-26.93729723 5.42963494 -23.6582303 1.82232816 -18.31640625 -0.7265625 C-12.39881941 -2.50994484 -5.64495683 -2.77577073 0 0 Z " fill="#081B31" transform="translate(185.75,19.5)"/>
<path d="M0 0 C4.95 0 9.9 0 15 0 C16.15534867 3.33030008 17.29944724 6.66379055 18.4375 10 C18.92573242 11.40185547 18.92573242 11.40185547 19.42382812 12.83203125 C21.26661553 18.26540442 22.52099155 23.27888493 23 29 C23.99 29 24.98 29 26 29 C26.17402344 27.32550781 26.17402344 27.32550781 26.3515625 25.6171875 C26.97174466 20.67966708 28.12024374 15.934899 29.375 11.125 C29.68824219 9.84496094 29.68824219 9.84496094 30.0078125 8.5390625 C30.21921875 7.724375 30.430625 6.9096875 30.6484375 6.0703125 C30.83583496 5.33570801 31.02323242 4.60110352 31.21630859 3.84423828 C32 2 32 2 35 0 C38.13671875 -0.1953125 38.13671875 -0.1953125 41.6875 -0.125 C42.86699219 -0.10695313 44.04648438 -0.08890625 45.26171875 -0.0703125 C46.61716797 -0.03550781 46.61716797 -0.03550781 48 0 C47.43720045 6.39814229 45.87165971 11.95399605 43.75 18 C43.11058621 19.8628037 42.47257813 21.72609046 41.8359375 23.58984375 C41.52237305 24.50491699 41.20880859 25.41999023 40.88574219 26.36279297 C39.85968164 29.4177836 38.90783103 32.49022075 37.97583008 35.57495117 C31.54213905 56.85763247 31.54213905 56.85763247 24 62 C23.67 62.66 23.34 63.32 23 64 C18.38 64 13.76 64 9 64 C9 63.34 9 62.68 9 62 C8.05125 61.938125 7.1025 61.87625 6.125 61.8125 C3 61 3 61 1.375 58.8125 C1 56 1 56 2.5625 52.6875 C5 50 5 50 7.6875 49.5625 C10 50 10 50 11 51 C12.99958364 51.04080783 15.00045254 51.04254356 17 51 C18.32 48.36 19.64 45.72 21 43 C20.05125 43.020625 19.1025 43.04125 18.125 43.0625 C15 43 15 43 13 42 C12.19384766 40.34863281 12.19384766 40.34863281 11.4140625 38.203125 C11.12490967 37.41510498 10.83575684 36.62708496 10.5378418 35.81518555 C10.236604 34.96867432 9.93536621 34.12216309 9.625 33.25 C9.31409424 32.39124268 9.00318848 31.53248535 8.68286133 30.64770508 C6.56166532 24.73190668 4.60288914 18.7898822 2.82421875 12.76171875 C2.23544611 10.78891184 1.58496805 8.83409753 0.89453125 6.89453125 C0 4 0 4 0 0 Z " fill="#091C32" transform="translate(205,19)"/>
<path d="M0 0 C1.35295143 0.80108966 2.69561414 1.62204798 4 2.5 C4.1953125 7.203125 4.1953125 7.203125 2.4375 9.875 C0 11.5 0 11.5 -3.5 11.375 C-7 10.5 -7 10.5 -8.9375 9.4375 C-12.23846042 7.93706344 -15.40411117 8.38013704 -19 8.5 C-18.67 9.49 -18.34 10.48 -18 11.5 C-15.58193061 12.28415814 -13.28602107 12.90059353 -10.8125 13.4375 C-4.46843853 14.8177202 0.27822243 16.77822243 5 21.5 C6.41358508 26.53648194 6.6902958 31.1866642 4.1875 35.875 C0.80771977 40.48718628 -3.54306688 42.23520063 -9 43.5 C-16.31079646 44.47253714 -23.73660655 43.45360866 -29.89453125 39.1875 C-31.31389044 38.01744277 -32.66553828 36.76602779 -34 35.5 C-33.8125 33.1875 -33.8125 33.1875 -33 30.5 C-30.38981973 28.32484977 -28.92107481 27.45394626 -25.5 27.625 C-23 28.5 -23 28.5 -20.8125 30.0625 C-16.63009681 32.20017274 -12.61111281 31.74174766 -8 31.5 C-8.33 30.51 -8.66 29.52 -9 28.5 C-11.76083978 27.55503445 -14.42815095 26.76912832 -17.25 26.0625 C-23.42265347 24.51673433 -28.30618964 23.09174715 -32.3125 17.75 C-33.84888323 12.7218367 -33.67101447 8.89571009 -31.4375 4.25 C-23.52172856 -4.68061394 -10.42518719 -5.22002954 0 0 Z " fill="#0B1E34" transform="translate(287,20.5)"/>
<path d="M0 0 C3.18676356 2.13926258 5.455705 5.04718684 7.6875 8.1328125 C5.97220274 11.87027213 4.19470409 13.8781813 0.6875 16.1328125 C-2.36448782 16.1328125 -3.68394838 14.86633866 -6.1875 13.0703125 C-9.68735281 10.90040376 -11.28085554 10.60694583 -15.3125 11.1328125 C-18.25710006 12.03255141 -19.0588126 12.67617519 -20.5625 15.3828125 C-21.6276032 19.28819089 -21.88865248 22.53731331 -20.5 26.3828125 C-19.26835872 28.43454417 -19.26835872 28.43454417 -16.3125 30.1328125 C-11.18283353 30.84501218 -11.18283353 30.84501218 -6.59765625 28.9765625 C-6.09105469 28.5125 -5.58445312 28.0484375 -5.0625 27.5703125 C-2.3125 25.1328125 -2.3125 25.1328125 -0.25 25.1328125 C0.389375 25.4628125 1.02875 25.7928125 1.6875 26.1328125 C2.574375 26.5453125 3.46125 26.9578125 4.375 27.3828125 C7.22273913 29.53785833 7.17919476 30.71432008 7.6875 34.1328125 C1.67224786 39.83558401 -3.53942957 44.1104455 -12.125 44.6328125 C-19.91459553 44.34869351 -26.03709933 40.87179997 -31.3125 35.2578125 C-35.61686607 29.83937521 -36.82566177 24.21627254 -36.6171875 17.39453125 C-35.66375424 10.31712281 -31.61261245 6.02939131 -26.3125 1.578125 C-19.04273054 -3.67541934 -8.15684574 -3.62135824 0 0 Z " fill="#0C1E34" transform="translate(419.3125,19.8671875)"/>
<path d="M0 0 C0.99128906 -0.00257813 1.98257812 -0.00515625 3.00390625 -0.0078125 C5.4375 0.125 5.4375 0.125 6.4375 1.125 C6.58143457 5.46030918 6.47962061 9.78657731 6.4375 14.125 C11.0575 14.125 15.6775 14.125 20.4375 14.125 C20.53515625 21.83984375 20.53515625 21.83984375 20.4375 24.125 C19.4375 25.125 19.4375 25.125 16.49609375 25.22265625 C13.14322917 25.19010417 9.79036458 25.15755208 6.4375 25.125 C6.7675 31.395 7.0975 37.665 7.4375 44.125 C9.0875 44.455 10.7375 44.785 12.4375 45.125 C12.7675 44.795 13.0975 44.465 13.4375 44.125 C15.8125 43.75 15.8125 43.75 18.4375 44.125 C21.16258509 47.41389579 21.79896791 49.90787443 21.4375 54.125 C14.80502262 58.20652454 9.19356669 59.19404998 1.4375 58.125 C-3.66663049 55.79680013 -5.60187091 53.30827232 -7.5625 48.125 C-7.91986529 44.15842851 -7.84554048 40.22840357 -7.75 36.25 C-7.73646484 35.18007813 -7.72292969 34.11015625 -7.70898438 33.0078125 C-7.67378624 30.37968489 -7.62454693 27.75260806 -7.5625 25.125 C-8.531875 25.145625 -9.50125 25.16625 -10.5 25.1875 C-13.5625 25.125 -13.5625 25.125 -14.5625 24.125 C-14.63455511 22.43891034 -14.64636068 20.74999341 -14.625 19.0625 C-14.61597656 18.14339844 -14.60695313 17.22429688 -14.59765625 16.27734375 C-14.58605469 15.56707031 -14.57445312 14.85679688 -14.5625 14.125 C-12.2525 14.125 -9.9425 14.125 -7.5625 14.125 C-7.5625 9.835 -7.5625 5.545 -7.5625 1.125 C-4.93920316 -0.18664842 -2.92551375 -0.00762846 0 0 Z " fill="#091D34" transform="translate(309.5625,4.875)"/>
<path d="M0 0 C0.97585304 -0.00262848 0.97585304 -0.00262848 1.97142029 -0.00531006 C4.12615613 -0.00971845 6.28081017 -0.00679415 8.43554688 -0.00341797 C9.93005387 -0.0040913 11.42456076 -0.00506157 12.91906738 -0.00631714 C16.05298911 -0.00779274 19.18688236 -0.00564397 22.32080078 -0.00097656 C26.34272783 0.00472065 30.36458815 0.00144091 34.38651276 -0.00454903 C37.47308863 -0.00815835 40.55964863 -0.00701434 43.64622498 -0.00442123 C45.12943021 -0.003753 46.61263688 -0.00457681 48.09584045 -0.00690079 C50.16679722 -0.00943338 52.23764512 -0.00557814 54.30859375 0 C56.078255 0.00119339 56.078255 0.00119339 57.88366699 0.00241089 C60.65429688 0.12939453 60.65429688 0.12939453 62.65429688 1.12939453 C62.70818775 3.0874296 62.74703905 5.04588362 62.77929688 7.00439453 C62.8025 8.09494141 62.82570313 9.18548828 62.84960938 10.30908203 C62.65429688 13.12939453 62.65429688 13.12939453 60.65429688 15.12939453 C57.88366699 15.37663269 57.88366699 15.37663269 54.30859375 15.37231445 C53.65802505 15.3742128 53.00745636 15.37611115 52.33717346 15.37806702 C50.18234279 15.38177784 48.02784769 15.3710664 45.87304688 15.35986328 C44.37854044 15.35867151 42.88403325 15.35821831 41.38952637 15.35847473 C38.25556762 15.35690933 35.12172301 15.34861552 31.98779297 15.33520508 C27.9658577 15.31821514 23.94404795 15.31439072 19.92208099 15.31515026 C16.83549801 15.31487863 13.7489426 15.30939855 10.66236877 15.30214882 C9.17916574 15.29896135 7.69595957 15.29699456 6.2127533 15.29625511 C4.14178115 15.29409237 2.07094338 15.28534961 0 15.2746582 C-1.17977417 15.27084641 -2.35954834 15.26703461 -3.57507324 15.2631073 C-6.34570312 15.12939453 -6.34570312 15.12939453 -8.34570312 14.12939453 C-8.34570312 9.83939453 -8.34570312 5.54939453 -8.34570312 1.12939453 C-5.52117169 -0.28287119 -3.158678 0.00213009 0 0 Z " fill="#06C2F3" transform="translate(8.345703125,46.87060546875)"/>
<path d="M0 0 C0.97585304 -0.00262848 0.97585304 -0.00262848 1.97142029 -0.00531006 C4.12615613 -0.00971845 6.28081017 -0.00679415 8.43554688 -0.00341797 C9.93005387 -0.0040913 11.42456076 -0.00506157 12.91906738 -0.00631714 C16.05298911 -0.00779274 19.18688236 -0.00564397 22.32080078 -0.00097656 C26.34272783 0.00472065 30.36458815 0.00144091 34.38651276 -0.00454903 C37.47308863 -0.00815835 40.55964863 -0.00701434 43.64622498 -0.00442123 C45.12943021 -0.003753 46.61263688 -0.00457681 48.09584045 -0.00690079 C50.16679722 -0.00943338 52.23764512 -0.00557814 54.30859375 0 C56.078255 0.00119339 56.078255 0.00119339 57.88366699 0.00241089 C60.65429688 0.12939453 60.65429688 0.12939453 62.65429688 1.12939453 C62.70818775 3.0874296 62.74703905 5.04588362 62.77929688 7.00439453 C62.8025 8.09494141 62.82570313 9.18548828 62.84960938 10.30908203 C62.65429688 13.12939453 62.65429688 13.12939453 60.65429688 15.12939453 C57.88366699 15.37663269 57.88366699 15.37663269 54.30859375 15.37231445 C53.65802505 15.3742128 53.00745636 15.37611115 52.33717346 15.37806702 C50.18234279 15.38177784 48.02784769 15.3710664 45.87304688 15.35986328 C44.37854044 15.35867151 42.88403325 15.35821831 41.38952637 15.35847473 C38.25556762 15.35690933 35.12172301 15.34861552 31.98779297 15.33520508 C27.9658577 15.31821514 23.94404795 15.31439072 19.92208099 15.31515026 C16.83549801 15.31487863 13.7489426 15.30939855 10.66236877 15.30214882 C9.17916574 15.29896135 7.69595957 15.29699456 6.2127533 15.29625511 C4.14178115 15.29409237 2.07094338 15.28534961 0 15.2746582 C-1.17977417 15.27084641 -2.35954834 15.26703461 -3.57507324 15.2631073 C-6.34570312 15.12939453 -6.34570312 15.12939453 -8.34570312 14.12939453 C-8.34570312 9.83939453 -8.34570312 5.54939453 -8.34570312 1.12939453 C-5.52117169 -0.28287119 -3.158678 0.00213009 0 0 Z " fill="#09C0F3" transform="translate(8.345703125,7.87060546875)"/>
<path d="M0 0 C24.75 0 49.5 0 75 0 C75 3.96 75 7.92 75 12 C71.34678207 14.43547862 69.61782838 14.24795898 65.26538086 14.24291992 C64.58540543 14.24481827 63.90542999 14.24671661 63.20484924 14.24867249 C60.95806333 14.25237614 58.71160092 14.24168285 56.46484375 14.23046875 C54.9045058 14.22927669 53.34416712 14.22882384 51.78382874 14.2290802 C48.51461288 14.22751609 45.24550664 14.21923137 41.97631836 14.20581055 C37.78065768 14.18880675 33.58511733 14.18499666 29.38942623 14.18575573 C26.16816555 14.18548416 22.9469313 14.1800052 19.7256794 14.17275429 C18.17828128 14.169567 16.63088015 14.16760007 15.08347893 14.16686058 C12.92400862 14.16469844 10.76466732 14.1559574 8.60522461 14.14526367 C7.37517197 14.14145187 6.14511932 14.13764008 4.87779236 14.13371277 C2 14 2 14 0 13 C0 8.71 0 4.42 0 0 Z " fill="#03C2F5" transform="translate(0,28)"/>
<path d="M0 0 C9.57 0 19.14 0 29 0 C29 19.14 29 38.28 29 58 C28.34 58 27.68 58 27 58 C25.26949943 55.61351207 23.65017677 53.2288835 22.0625 50.75 C21.17938419 49.38997594 20.29529527 48.03058318 19.41015625 46.671875 C18.99523926 46.03314453 18.58032227 45.39441406 18.15283203 44.73632812 C16.84334203 42.76405094 15.45704729 40.86578993 14 39 C16.16896727 34.06945146 19.71051335 30.09054291 23.00390625 25.875 C25.25043033 23.00144437 25.25043033 23.00144437 26 19 C21.38 19 16.76 19 12 19 C11.01 21.475 11.01 21.475 10 24 C8.37890625 26.45703125 8.37890625 26.45703125 6.5625 28.8125 C5.66724609 29.99779297 5.66724609 29.99779297 4.75390625 31.20703125 C4.17511719 31.79871094 3.59632813 32.39039063 3 33 C2.01 33 1.02 33 0 33 C0 22.11 0 11.22 0 0 Z " fill="#F8F9F9" transform="translate(445,0)"/>
<path d="M0 0 C0.86625 0.00644531 1.7325 0.01289063 2.625 0.01953125 C6.52412045 0.29529141 8.42882067 1.37144645 11 4.1875 C11 3.1975 11 2.2075 11 1.1875 C12.97909398 1.16063447 14.95828971 1.14116625 16.9375 1.125 C18.03964844 1.11339844 19.14179688 1.10179688 20.27734375 1.08984375 C23 1.1875 23 1.1875 24 2.1875 C24.101137 5.20558063 24.13968909 8.20030513 24.1328125 11.21875 C24.13376923 12.12500122 24.13472595 13.03125244 24.13571167 13.96496582 C24.13639353 15.88501047 24.13453882 17.80505741 24.13037109 19.72509766 C24.12502292 22.67485704 24.13031588 25.62446414 24.13671875 28.57421875 C24.13605797 30.43489617 24.13477681 32.2955735 24.1328125 34.15625 C24.13483673 35.04477661 24.13686096 35.93330322 24.13894653 36.84875488 C24.11494988 43.07255012 24.11494988 43.07255012 23 44.1875 C21.0437407 44.28677286 19.08377091 44.31719729 17.125 44.3125 C16.05507813 44.31507812 14.98515625 44.31765625 13.8828125 44.3203125 C9.72341826 44.12868729 5.97089138 43.15839138 3 40.1875 C2.375 38.0625 2.375 38.0625 2 36.1875 C-0.31 35.5275 -2.62 34.8675 -5 34.1875 C-5 33.8575 -5 33.5275 -5 33.1875 C-3.98679687 33.04054688 -3.98679687 33.04054688 -2.953125 32.890625 C0.93929188 32.23813893 4.21136588 31.65692507 7.625 29.625 C9.74387954 25.86880445 9.74312786 22.39081696 9 18.1875 C6.8571403 14.70535298 4.55427834 13.92904063 0.75 12.9375 C-0.4875 12.69 -1.725 12.4425 -3 12.1875 C-3 11.5275 -3 10.8675 -3 10.1875 C-4.32 10.5175 -5.64 10.8475 -7 11.1875 C-7 10.5275 -7 9.8675 -7 9.1875 C-5.03852126 7.79811923 -3.03833424 6.4614589 -1 5.1875 C-3.31 4.1975 -5.62 3.2075 -8 2.1875 C-4.74004414 0.01419609 -3.77020034 -0.06171459 0 0 Z " fill="#071B30" transform="translate(355,17.8125)"/>
<path d="M0 0 C5.67276511 -0.29341888 8.99067246 -0.00559652 14 3 C14.33 2.34 14.66 1.68 15 1 C19.29 1 23.58 1 28 1 C28 15.19 28 29.38 28 44 C23.71 44 19.42 44 15 44 C13.515 41.525 13.515 41.525 12 39 C12.33 38.01 12.66 37.02 13 36 C14.485 35.505 14.485 35.505 16 35 C16 34.01 16 33.02 16 32 C15.34 32 14.68 32 14 32 C14 31.01 14 30.02 14 29 C14.66 29 15.32 29 16 29 C16 28.34 16 27.68 16 27 C15.34 26.67 14.68 26.34 14 26 C14.061875 25.113125 14.12375 24.22625 14.1875 23.3125 C13.97697059 19.59314716 13.2132352 17.95098026 11 15 C7.95108115 12.96738744 6.10598176 12.42311729 2.5625 11.75 C1.14130859 11.46382812 1.14130859 11.46382812 -0.30859375 11.171875 C-3.24886374 10.9841074 -4.54541296 11.44484793 -7 13 C-7 11 -7 11 -5.5 9.375 C-5.005 8.92125 -4.51 8.4675 -4 8 C-5.05270463 6.84188612 -5.05270463 6.84188612 -7 6 C-4.78065836 2.67098753 -3.65316671 2.24976756 0 1 C0 0.67 0 0.34 0 0 Z " fill="#061A30" transform="translate(174,18)"/>
<path d="M0 0 C4.97252867 2.70462654 8.24380148 5.98213813 10.875 11 C11.75 14.5 11.75 14.5 11.875 17 C10.885 17.66 9.895 18.32 8.875 19 C8.875 16.69 8.875 14.38 8.875 12 C7.885 12.495 7.885 12.495 6.875 13 C7.205 15.64 7.535 18.28 7.875 21 C7.215 21 6.555 21 5.875 21 C5.545 20.01 5.215 19.02 4.875 18 C4.215 18.99 3.555 19.98 2.875 21 C2.215 21 1.555 21 0.875 21 C1.535 23.31 2.195 25.62 2.875 28 C1.905625 28.474375 0.93625 28.94875 -0.0625 29.4375 C-2.92977437 30.70193947 -2.92977437 30.70193947 -4.125 32 C-9.5903588 32.64190456 -13.76704863 33.03204304 -18.25 29.625 C-20.87054751 25.95623349 -21.51325521 23.61762227 -21.48828125 19.0390625 C-20.88465397 15.650961 -18.7094052 14.08013101 -16.125 12 C-15.795 11.67 -15.465 11.34 -15.125 11 C-12.54477858 10.71778828 -9.96469815 10.55179803 -7.375 10.37890625 C-6.6325 10.25386719 -5.89 10.12882812 -5.125 10 C-4.795 9.34 -4.465 8.68 -4.125 8 C-4.785 7.67 -5.445 7.34 -6.125 7 C-5.465 5.68 -4.805 4.36 -4.125 3 C-5.775 3 -7.425 3 -9.125 3 C-8.135 3.99 -7.145 4.98 -6.125 6 C-6.785 6 -7.445 6 -8.125 6 C-8.455 6.66 -8.785 7.32 -9.125 8 C-9.785 7.01 -10.445 6.02 -11.125 5 C-10.795 6.32 -10.465 7.64 -10.125 9 C-12.105 9.33 -14.085 9.66 -16.125 10 C-16.125 9.34 -16.125 8.68 -16.125 8 C-16.785 8 -17.445 8 -18.125 8 C-16.42209344 4.59418688 -14.74681982 3.20727327 -11.125 2 C-13.105 2 -15.085 2 -17.125 2 C-17.455 2.99 -17.785 3.98 -18.125 5 C-19.445 4.67 -20.765 4.34 -22.125 4 C-21.795 3.01 -21.465 2.02 -21.125 1 C-13.78049818 -2.47897454 -7.47123415 -3.35811128 0 0 Z " fill="#081D31" transform="translate(139.125,19)"/>
<path d="M0 0 C0.33 0 0.66 0 1 0 C1.33 19.8 1.66 39.6 2 60 C0.35 59.34 -1.3 58.68 -3 58 C-5.05270463 59.84188612 -5.05270463 59.84188612 -6 62 C-7.65 61.34 -9.3 60.68 -11 60 C-10 57 -10 57 -6.9375 54.625 C-3.73415662 52.33571422 -3.73415662 52.33571422 -3.625 49.1875 C-3.74875 48.465625 -3.8725 47.74375 -4 47 C-5.65697379 46.30959426 -7.3255761 45.6469365 -9 45 C-9.639375 44.690625 -10.27875 44.38125 -10.9375 44.0625 C-14.00840882 43.96944216 -15.12987578 45.8770333 -17.29296875 47.83203125 C-20.60541244 50.09844009 -23.09404485 49.61999288 -27 49 C-29.69105198 46.82425584 -31.45532928 45.08934144 -33 42 C-33.04259733 37.58691657 -32.80364944 34.03696701 -30.0625 30.5 C-26.5357691 27.9351048 -24.37416132 27.57940757 -20 28 C-17.95708818 29.26660533 -15.95309888 30.59886384 -14 32 C-12.0827517 33.23075102 -12.0827517 33.23075102 -10 33 C-7.79545243 31.3803324 -5.93985685 29.88295438 -4 28 C-3.4853418 27.59450928 -2.97068359 27.18901855 -2.44042969 26.77124023 C-0.40958109 24.27398489 -0.56925693 22.42872305 -0.48828125 19.23828125 C-0.45283203 18.12001953 -0.41738281 17.00175781 -0.38085938 15.84960938 C-0.35830078 14.68236328 -0.33574219 13.51511719 -0.3125 12.3125 C-0.27833984 11.13365234 -0.24417969 9.95480469 -0.20898438 8.74023438 C-0.12642075 5.82691775 -0.05729678 2.91390534 0 0 Z " fill="#F0F1F3" transform="translate(430,2)"/>
<path d="M0 0 C5.96313166 -0.02464574 11.92623395 -0.042834 17.8894043 -0.05493164 C19.91968298 -0.05997278 21.94995802 -0.06680557 23.98022461 -0.07543945 C26.89177347 -0.08751467 29.8032745 -0.09323034 32.71484375 -0.09765625 C33.6283812 -0.10281754 34.54191864 -0.10797882 35.48313904 -0.11329651 C37.65575427 -0.11349168 39.82827296 -0.06211805 42 0 C43 1 43 1 43.1328125 3.6875 C43.13023438 4.780625 43.12765625 5.87375 43.125 7 C43.12886719 8.6396875 43.12886719 8.6396875 43.1328125 10.3125 C43 13 43 13 42 14 C39.06633032 14.10112813 36.15669827 14.1396904 33.22265625 14.1328125 C32.34097275 14.13376923 31.45928925 14.13472595 30.55088806 14.13571167 C28.68211801 14.13639359 26.81334561 14.13453851 24.94458008 14.13037109 C22.07823372 14.12502932 19.21204453 14.13031242 16.34570312 14.13671875 C14.53385382 14.13605785 12.72200461 14.13477643 10.91015625 14.1328125 C10.0486647 14.13483673 9.18717316 14.13686096 8.29957581 14.13894653 C2.22990878 14.11495439 2.22990878 14.11495439 0 13 C0 8.71 0 4.42 0 0 Z " fill="#04C2F6" transform="translate(0,67)"/>
<path d="M0 0 C0.33 0 0.66 0 1 0 C1 3.63 1 7.26 1 11 C5.29 11 9.58 11 14 11 C14 10.34 14 9.68 14 9 C18.80592371 9 23.25459333 9.15637215 28 10 C27.875 11.75 27.875 11.75 27 14 C26.071875 14.5775 25.14375 15.155 24.1875 15.75 C20.03033749 18.68446765 18.32691734 21.09777761 17 26 C15.85901519 34.82296014 16.28753525 41.6322734 21.39453125 49.046875 C22.8464592 50.81321071 24.3424848 52.4271027 26 54 C22.94736336 54.98120464 21.05263664 54.98120464 18 54 C17.67 54.99 17.34 55.98 17 57 C10.9453125 57.1953125 10.9453125 57.1953125 9 57 C8.34 56.34 7.68 55.68 7 55 C12.75 52 12.75 52 15 52 C14.690625 51.0925 14.38125 50.185 14.0625 49.25 C13.2727737 46.83436662 12.57050703 44.47219715 12 42 C11.113125 42.350625 10.22625 42.70125 9.3125 43.0625 C5.92519461 44.02117134 4.30432401 44.03850183 1 43 C0 42 0 42 -0.11352539 40.14233398 C-0.10828857 39.35157471 -0.10305176 38.56081543 -0.09765625 37.74609375 C-0.09443359 36.89208984 -0.09121094 36.03808594 -0.08789062 35.15820312 C-0.07951172 34.26037109 -0.07113281 33.36253906 -0.0625 32.4375 C-0.05798828 31.53580078 -0.05347656 30.63410156 -0.04882812 29.70507812 C-0.03700244 27.47002411 -0.01906638 25.23500398 0 23 C6.435 22.505 6.435 22.505 13 22 C13.33 18.7 13.66 15.4 14 12 C9.38 12 4.76 12 0 12 C0 8.04 0 4.08 0 0 Z " fill="#F0F2F3" transform="translate(316,7)"/>
<path d="M0 0 C2.81256281 -0.02684312 5.62487241 -0.04676188 8.4375 -0.0625 C9.23994141 -0.07087891 10.04238281 -0.07925781 10.86914062 -0.08789062 C12.91295221 -0.0965143 14.95683902 -0.0522815 17 0 C17.33 0.33 17.66 0.66 18 1 C17.30232558 7.39534884 17.30232558 7.39534884 16 10 C15.65282008 15.29449372 15.47578282 18.74663444 19 23 C22.98611956 25.81373146 27.1323538 27.03649754 31.8125 28.1875 C32.50537109 28.36474609 33.19824219 28.54199219 33.91210938 28.72460938 C35.60625944 29.15690974 37.30289268 29.57945894 39 30 C39.495 31.98 39.495 31.98 40 34 C36.38069302 35.20643566 33.80768995 35.32268559 30 35 C28.989375 34.319375 27.97875 33.63875 26.9375 32.9375 C24.1422227 30.68428989 24.1422227 30.68428989 20.8125 31.125 C17.56760152 32.13452397 15.53932705 33.01123374 13.875 36.0625 C13.58625 36.701875 13.2975 37.34125 13 38 C12.505 38.495 12.505 38.495 12 39 C11.34 39 10.68 39 10 39 C9.67 39.66 9.34 40.32 9 41 C8.01 39.68 7.02 38.36 6 37 C5.01 37.99 4.02 38.98 3 40 C5.62550684 28.80298554 8.81709118 17.87235709 12.39916992 6.94433594 C13.00501516 4.98377053 13.50230737 2.99077051 14 1 C9.05 1.33 4.1 1.66 -1 2 C-0.67 1.34 -0.34 0.68 0 0 Z " fill="#F1F3F5" transform="translate(239,18)"/>
<path d="M0 0 C1 4 1 4 0 7 C-20.13 7 -40.26 7 -61 7 C-60.67 5.68 -60.34 4.36 -60 3 C-61.32 3 -62.64 3 -64 3 C-64 2.34 -64 1.68 -64 1 C-42.88 0.67 -21.76 0.34 0 0 Z " fill="#03C3FA" transform="translate(64,13)"/>
<path d="M0 0 C3.98416222 0.26561081 5.70275392 0.72513896 8.75 3.25 C10.82662359 6.908813 11.18354705 10.0879483 10.75 14.25 C9.48896101 17.02428577 8.43910086 18.73317435 6 20.5625 C2.68788168 21.57453615 0.19560774 21.67314481 -3.25 21.25 C-7.39948967 17.82216071 -9.09893898 15.78578707 -9.625 10.4375 C-9.60511166 6.79130475 -9.31608692 6.32964321 -6.8125 3.3125 C-5.966875 2.631875 -5.12125 1.95125 -4.25 1.25 C-3.25 0.25 -3.25 0.25 0 0 Z " fill="#F2F4F5" transform="translate(127.25,29.75)"/>
<path d="M0 0 C3.38182152 2.15206824 5.75151347 4.14104163 7 8 C7.45972376 11.02104186 7.60025379 13.03825508 5.94921875 15.68359375 C2.76792801 19.59686289 1.18872206 20.86358927 -3.8125 21.4375 C-7.44774681 21.37128421 -7.96837796 21.02569291 -11 18.5625 C-13.32853642 15.22017902 -13.71671367 12.13706898 -13.5 8.12109375 C-12.69230342 4.69469341 -10.72622198 3.07712151 -8 1 C-5.14675563 -0.42662219 -3.16545451 -0.31033868 0 0 Z " fill="#F2F3F5" transform="translate(182,30)"/>
<path d="M0 0 C5.57894737 3.15789474 5.57894737 3.15789474 7 6 C7.42071592 9.05920574 7.48514117 11.9467746 7 15 C3.89621518 18.9205703 1.67069893 20.7429694 -3.25 21.5 C-7.14057397 20.9812568 -7.88027208 20.71283222 -10.5 18.0625 C-12.71877859 15.12202193 -13.42278214 13.05896198 -13.25 9.375 C-12.62442309 6.13639387 -11.72525923 4.19666183 -9.3125 1.9375 C-5.64756331 -0.20614222 -4.14658888 -0.77748542 0 0 Z " fill="#F2F4F5" transform="translate(358,30)"/>
<path d="M0 0 C8.70116929 -0.02314169 17.40232803 -0.04092443 26.10352135 -0.05181217 C30.14356954 -0.05703699 34.18359672 -0.06412739 38.22363281 -0.07543945 C42.120441 -0.08628254 46.01722895 -0.09227987 49.91405106 -0.09487724 C51.40284163 -0.09672892 52.89163107 -0.10034463 54.38041306 -0.10573006 C56.46115285 -0.11295934 58.54180832 -0.11399014 60.62255859 -0.11352539 C61.80836517 -0.115746 62.99417175 -0.11796661 64.21591187 -0.12025452 C67 0 67 0 69 1 C69.05389087 2.95803507 69.09274217 4.91648909 69.125 6.875 C69.14820312 7.96554688 69.17140625 9.05609375 69.1953125 10.1796875 C69 13 69 13 67 15 C64.22937012 15.24723816 64.22937012 15.24723816 60.65429688 15.24291992 C60.00372818 15.24481827 59.35315948 15.24671661 58.68287659 15.24867249 C56.52804592 15.25238331 54.37355082 15.24167187 52.21875 15.23046875 C50.72424357 15.22927698 49.22973638 15.22882378 47.73522949 15.2290802 C44.60127074 15.2275148 41.46742613 15.21922099 38.33349609 15.20581055 C34.31156082 15.18882061 30.28975107 15.18499619 26.26778412 15.18575573 C23.18120114 15.1854841 20.09464572 15.18000402 17.0080719 15.17275429 C15.52486886 15.16956682 14.0416627 15.16760003 12.55845642 15.16686058 C10.48748427 15.16469784 8.41664651 15.15595508 6.34570312 15.14526367 C5.16592896 15.14145187 3.98615479 15.13764008 2.77062988 15.13371277 C0 15 0 15 -2 14 C-2 12.02 -2 10.04 -2 8 C-0.68 8 0.64 8 2 8 C1.67 9.32 1.34 10.64 1 12 C22.12 11.67 43.24 11.34 65 11 C65.33 8.69 65.66 6.38 66 4 C62.49647851 1.66431901 61.02382361 1.73082423 56.8762207 1.68115234 C55.61513992 1.66128265 54.35405914 1.64141296 53.05476379 1.62094116 C51.67843806 1.60906478 50.30211047 1.59740192 48.92578125 1.5859375 C47.51758181 1.56722711 46.1093936 1.54765379 44.70121765 1.5272522 C40.99741227 1.47591107 37.29357054 1.43629615 33.58959961 1.39910889 C29.8089904 1.35908153 26.02853268 1.30798344 22.24804688 1.2578125 C14.83213516 1.16102983 7.4161502 1.07663274 0 1 C0 0.67 0 0.34 0 0 Z " fill="#32BFE3" transform="translate(2,8)"/>
<path d="M0 0 C22.77 0.33 45.54 0.66 69 1 C69 1.33 69 1.66 69 2 C67.35 2.33 65.7 2.66 64 3 C66.97 3.33 69.94 3.66 73 4 C73 4.66 73 5.32 73 6 C48.91 6 24.82 6 0 6 C0 4.02 0 2.04 0 0 Z " fill="#C6F7FE" transform="translate(0,22)"/>
<path d="M0 0 C24.75 0 49.5 0 75 0 C75 3.96 75 7.92 75 12 C71.35021866 14.43318756 69.61409691 14.25316723 65.26538086 14.25878906 C64.58540543 14.2622937 63.90542999 14.26579834 63.20484924 14.26940918 C60.9580768 14.27820925 58.71161937 14.27238424 56.46484375 14.265625 C54.9045048 14.26697199 53.34416625 14.26891281 51.78382874 14.27142334 C48.51461794 14.27437213 45.24551645 14.2700843 41.97631836 14.26074219 C37.78059934 14.24933829 33.58513591 14.2559145 29.38942623 14.26788712 C26.16815759 14.27510431 22.94694984 14.27281861 19.7256794 14.26763153 C18.17827894 14.26629513 16.63087299 14.26794242 15.08347893 14.27259064 C12.92391115 14.27765468 10.76476117 14.26994822 8.60522461 14.25878906 C7.37517197 14.25719788 6.14511932 14.25560669 4.87779236 14.25396729 C2 14 2 14 0 12 C23.76 12 47.52 12 72 12 C72 11.01 72 10.02 72 9 C69.36 9 66.72 9 64 9 C64 8.34 64 7.68 64 7 C66.31 6.34 68.62 5.68 71 5 C71.33 3.68 71.66 2.36 72 1 C48.24 1 24.48 1 0 1 C0 0.67 0 0.34 0 0 Z " fill="#1AB7DF" transform="translate(0,28)"/>
<path d="M0 0 C8.70116929 -0.02314169 17.40232803 -0.04092443 26.10352135 -0.05181217 C30.14356954 -0.05703699 34.18359672 -0.06412739 38.22363281 -0.07543945 C42.120441 -0.08628254 46.01722895 -0.09227987 49.91405106 -0.09487724 C51.40284163 -0.09672892 52.89163107 -0.10034463 54.38041306 -0.10573006 C56.46115285 -0.11295934 58.54180832 -0.11399014 60.62255859 -0.11352539 C61.80836517 -0.115746 62.99417175 -0.11796661 64.21591187 -0.12025452 C67 0 67 0 69 1 C69.05389087 2.95803507 69.09274217 4.91648909 69.125 6.875 C69.14820312 7.96554688 69.17140625 9.05609375 69.1953125 10.1796875 C69 13 69 13 67 15 C64.22937012 15.24723816 64.22937012 15.24723816 60.65429688 15.24291992 C60.00372818 15.24481827 59.35315948 15.24671661 58.68287659 15.24867249 C56.52804592 15.25238331 54.37355082 15.24167187 52.21875 15.23046875 C50.72424357 15.22927698 49.22973638 15.22882378 47.73522949 15.2290802 C44.60127074 15.2275148 41.46742613 15.21922099 38.33349609 15.20581055 C34.31156082 15.18882061 30.28975107 15.18499619 26.26778412 15.18575573 C23.18120114 15.1854841 20.09464572 15.18000402 17.0080719 15.17275429 C15.52486886 15.16956682 14.0416627 15.16760003 12.55845642 15.16686058 C10.48748427 15.16469784 8.41664651 15.15595508 6.34570312 15.14526367 C5.16592896 15.14145187 3.98615479 15.13764008 2.77062988 15.13371277 C0 15 0 15 -2 14 C-2 13.34 -2 12.68 -2 12 C20.77 12.33 43.54 12.66 67 13 C66.01 7.06 66.01 7.06 65 1 C43.55 1 22.1 1 0 1 C0 0.67 0 0.34 0 0 Z " fill="#41C0E3" transform="translate(2,47)"/>
<path d="M0 0 C0.33 0 0.66 0 1 0 C1.33 4.95 1.66 9.9 2 15 C2.66 15 3.32 15 4 15 C4.14695312 16.41152344 4.14695312 16.41152344 4.296875 17.8515625 C5.29805039 27.19854036 5.29805039 27.19854036 10 35 C10.5775 35.78375 11.155 36.5675 11.75 37.375 C12.1625 37.91125 12.575 38.4475 13 39 C11.02 39.495 11.02 39.495 9 40 C8.67 39.01 8.34 38.02 8 37 C7.34 36.67 6.68 36.34 6 36 C6.33 37.65 6.66 39.3 7 41 C5.35 41.99 3.7 42.98 2 44 C2 43.34 2 42.68 2 42 C1.01 42.495 1.01 42.495 0 43 C-2.04055005 43.07065617 -4.08334257 43.08421976 -6.125 43.0625 C-7.22070312 43.05347656 -8.31640625 43.04445312 -9.4453125 43.03515625 C-10.28835938 43.02355469 -11.13140625 43.01195312 -12 43 C-12 42.67 -12 42.34 -12 42 C-6.555 41.505 -6.555 41.505 -1 41 C-0.67 27.47 -0.34 13.94 0 0 Z " fill="#E5EAEE" transform="translate(379,20)"/>
<path d="M0 0 C0.67982941 -0.00335861 1.35965881 -0.00671722 2.06008911 -0.01017761 C4.31221329 -0.01969376 6.5642632 -0.02163092 8.81640625 -0.02270508 C10.37817414 -0.02591673 11.93994173 -0.02928073 13.50170898 -0.03279114 C16.77686257 -0.03878374 20.05198976 -0.04063086 23.32714844 -0.04003906 C27.53072439 -0.03993733 31.73413187 -0.05360078 35.93766785 -0.07081127 C39.16321597 -0.08191001 42.38872306 -0.08395894 45.61428833 -0.08342934 C47.16448549 -0.08461224 48.71468362 -0.08905128 50.26486206 -0.0967617 C52.42930032 -0.1065208 54.59336873 -0.10370021 56.7578125 -0.09765625 C58.60741577 -0.09979378 58.60741577 -0.09979378 60.49438477 -0.10197449 C63.37890625 0.14526367 63.37890625 0.14526367 65.37890625 2.14526367 C65.6796875 4.60620117 65.6796875 4.60620117 65.69140625 7.52026367 C65.70816406 8.47674805 65.72492188 9.43323242 65.7421875 10.41870117 C65.33094886 13.50520195 64.43391274 14.85710341 62.37890625 17.14526367 C61.71890625 16.81526367 61.05890625 16.48526367 60.37890625 16.14526367 C60.70890625 15.81526367 61.03890625 15.48526367 61.37890625 15.14526367 C61.70890625 11.18526367 62.03890625 7.22526367 62.37890625 3.14526367 C38.94890625 3.14526367 15.51890625 3.14526367 -8.62109375 3.14526367 C-8.62109375 2.48526367 -8.62109375 1.82526367 -8.62109375 1.14526367 C-5.73283368 -0.29886637 -3.22713017 0.00997606 0 0 Z " fill="#CDFDFE" transform="translate(8.62109375,5.854736328125)"/>
<path d="M0 0 C1.5 1.125 1.5 1.125 3 3 C3.1875 6.1875 3.1875 6.1875 3 9 C3.33 6.69 3.66 4.38 4 2 C4.33 2 4.66 2 5 2 C5.33 5.3 5.66 8.6 6 12 C3.36 12.99 0.72 13.98 -2 15 C-0.8141763 18.37503669 0.27573689 20.64722731 3 23 C0 23 0 23 -2.6953125 21.140625 C-6.40590012 18.73707652 -9.62676736 17.7544271 -13.875 16.75 C-14.56335938 16.57726562 -15.25171875 16.40453125 -15.9609375 16.2265625 C-17.63805318 15.80728358 -19.31869349 15.40214456 -21 15 C-21.33 13.68 -21.66 12.36 -22 11 C-19.16870331 9.58435166 -17.14918438 9.75775505 -14 10 C-11.99187074 10.98357352 -9.99145391 11.98308736 -8 13 C-5.05758982 13.41056886 -3.71563636 13.48561039 -1.25 11.8125 C0.28838998 9.58183452 0.64005447 7.6635969 1 5 C0.01 4.67 -0.98 4.34 -2 4 C-1.34 2.68 -0.68 1.36 0 0 Z " fill="#F1F5F8" transform="translate(290,18)"/>
<path d="M0 0 C5.96313166 -0.02464574 11.92623395 -0.042834 17.8894043 -0.05493164 C19.91968298 -0.05997278 21.94995802 -0.06680557 23.98022461 -0.07543945 C26.89177347 -0.08751467 29.8032745 -0.09323034 32.71484375 -0.09765625 C33.6283812 -0.10281754 34.54191864 -0.10797882 35.48313904 -0.11329651 C37.65575427 -0.11349168 39.82827296 -0.06211805 42 0 C43 1 43 1 43.1328125 3.6875 C43.13023438 4.780625 43.12765625 5.87375 43.125 7 C43.12886719 8.6396875 43.12886719 8.6396875 43.1328125 10.3125 C43 13 43 13 42 14 C39.06634254 14.11353016 36.15711538 14.16418708 33.22265625 14.16796875 C32.34097275 14.17129715 31.45928925 14.17462555 30.55088806 14.17805481 C28.68212406 14.18312783 26.81335096 14.18546302 24.94458008 14.18530273 C22.07813656 14.18748808 19.2120784 14.20563655 16.34570312 14.22460938 C14.53385549 14.22754339 12.72200602 14.22952813 10.91015625 14.23046875 C9.61791893 14.24124702 9.61791893 14.24124702 8.29957581 14.25224304 C2.2288216 14.2288216 2.2288216 14.2288216 0 12 C13.2 11.67 26.4 11.34 40 11 C40 8.03 40 5.06 40 2 C26.8 2 13.6 2 0 2 C0 1.34 0 0.68 0 0 Z " fill="#2BB7D8" transform="translate(0,67)"/>
<path d="M0 0 C0.33 0 0.66 0 1 0 C1 3.63 1 7.26 1 11 C5.29 11 9.58 11 14 11 C14 10.34 14 9.68 14 9 C18.80592371 9 23.25459333 9.15637215 28 10 C27.875 11.75 27.875 11.75 27 14 C26.071875 14.5775 25.14375 15.155 24.1875 15.75 C20.16954114 18.58620625 18.83664179 21.54884461 17 26 C16.34 26 15.68 26 15 26 C12.09712061 21.25789168 13.29693033 17.34332952 14 12 C9.38 12 4.76 12 0 12 C0 8.04 0 4.08 0 0 Z " fill="#E2E3E6" transform="translate(316,7)"/>
<path d="M0 0 C3 3.625 3 3.625 3 7 C3.66 5.02 4.32 3.04 5 1 C5.66 1.33 6.32 1.66 7 2 C7 5.63 7 9.26 7 13 C6.01 13.495 6.01 13.495 5 14 C4.34 13.67 3.68 13.34 3 13 C3 13.99 3 14.98 3 16 C2.34 16 1.68 16 1 16 C1 16.66 1 17.32 1 18 C0.34 18 -0.32 18 -1 18 C-1.33 18.66 -1.66 19.32 -2 20 C-2 19.34 -2 18.68 -2 18 C-3.32 18 -4.64 18 -6 18 C-5.88648483 16.18674449 -5.75887039 14.37436643 -5.625 12.5625 C-5.55539062 11.55316406 -5.48578125 10.54382813 -5.4140625 9.50390625 C-5.27742188 8.67761719 -5.14078125 7.85132813 -5 7 C-4.34 6.67 -3.68 6.34 -3 6 C-1.95191959 4.02477154 -0.9479589 2.02518491 0 0 Z " fill="#03172E" transform="translate(390,31)"/>
<path d="M0 0 C1.98 0 3.96 0 6 0 C6.103125 0.639375 6.20625 1.27875 6.3125 1.9375 C6.6528125 2.9584375 6.6528125 2.9584375 7 4 C7.99 4.33 8.98 4.66 10 5 C10.6875 7.0625 10.6875 7.0625 11 9 C6.7447656 11.1276172 2.67595903 11.82895659 -2 11 C-5.47910379 9.5756023 -8.74123785 7.86978156 -12 6 C-9.72385081 3.72385081 -8.64803179 3.51338589 -5.5625 2.875 C-4.38880859 2.62363281 -4.38880859 2.62363281 -3.19140625 2.3671875 C-1 2 -1 2 2 2 C1.34 1.34 0.68 0.68 0 0 Z " fill="#0D1F38" transform="translate(351,53)"/>
<path d="M0 0 C0.90105469 0.00902344 1.80210937 0.01804687 2.73046875 0.02734375 C3.41753906 0.03894531 4.10460937 0.05054687 4.8125 0.0625 C3.8225 0.3925 2.8325 0.7225 1.8125 1.0625 C2.1425 1.7225 2.4725 2.3825 2.8125 3.0625 C2.852492 5.06210012 2.85596799 7.06297242 2.8125 9.0625 C2.1525 9.0625 1.4925 9.0625 0.8125 9.0625 C0.1525 11.0425 -0.5075 13.0225 -1.1875 15.0625 C-0.5275 15.3925 0.1325 15.7225 0.8125 16.0625 C0.173125 16.165625 -0.46625 16.26875 -1.125 16.375 C-1.805625 16.601875 -2.48625 16.82875 -3.1875 17.0625 C-3.5175 18.0525 -3.8475 19.0425 -4.1875 20.0625 C-4.20167969 19.39863281 -4.21585937 18.73476563 -4.23046875 18.05078125 C-4.45799181 11.88994805 -4.45799181 11.88994805 -7.75 6.9375 C-8.554375 6.31875 -9.35875 5.7 -10.1875 5.0625 C-9.375 3.125 -9.375 3.125 -8.1875 1.0625 C-5.17259443 0.05753148 -3.14568308 -0.04085303 0 0 Z " fill="#F4F6F6" transform="translate(297.1875,29.9375)"/>
<path d="M0 0 C4.29 0 8.58 0 13 0 C13.87890625 6.93359375 13.87890625 6.93359375 14 9 C13 10 13 10 9.40234375 10.09765625 C7.91403133 10.0909822 6.42573568 10.07902183 4.9375 10.0625 C3.79958008 10.05573242 3.79958008 10.05573242 2.63867188 10.04882812 C0.75908129 10.0370068 -1.12046899 10.01907078 -3 10 C-2.01 9.67 -1.02 9.34 0 9 C0.33 8.34 0.66 7.68 1 7 C1.33 6.67 1.66 6.34 2 6 C1.01 6 0.02 6 -1 6 C-1 6.66 -1 7.32 -1 8 C-1.99 7.67 -2.98 7.34 -4 7 C-3.34 7 -2.68 7 -2 7 C-2 6.34 -2 5.68 -2 5 C-0.70766393 3.62689293 0.62437146 2.28965176 2 1 C1.34 0.67 0.68 0.34 0 0 Z " fill="#06182B" transform="translate(316,20)"/>
<path d="M0 0 C0.66 0 1.32 0 2 0 C3.40234375 2.08203125 3.40234375 2.08203125 4.9375 4.8125 C6.70906524 7.95238417 8.30835453 10.58153646 11 13 C7.94736336 13.98120464 6.05263664 13.98120464 3 13 C2.67 13.99 2.34 14.98 2 16 C-4.0546875 16.1953125 -4.0546875 16.1953125 -6 16 C-6.66 15.34 -7.32 14.68 -8 14 C-2.25 11 -2.25 11 0 11 C-0.309375 10.071875 -0.61875 9.14375 -0.9375 8.1875 C-1.625 6.125 -2.3125 4.0625 -3 2 C-2.01 2 -1.02 2 0 2 C0 1.34 0 0.68 0 0 Z " fill="#EFF1F1" transform="translate(331,48)"/>
<path d="M0 0 C0.66 0 1.32 0 2 0 C2 4.29 2 8.58 2 13 C-2.33170599 15.165853 -4.3896687 15.2434839 -9.15527344 15.22705078 C-10.22416557 15.22748886 -10.22416557 15.22748886 -11.31465149 15.22793579 C-13.66301781 15.22654577 -16.01106431 15.21100022 -18.359375 15.1953125 C-19.99033434 15.1915812 -21.62129592 15.18873478 -23.2522583 15.18673706 C-27.53979711 15.1791098 -31.8271999 15.15946912 -36.11468506 15.1373291 C-40.49180257 15.11685112 -44.86894212 15.10773117 -49.24609375 15.09765625 C-57.83079151 15.07622235 -66.41537882 15.04209739 -75 15 C-75 14.34 -75 13.68 -75 13 C-74.10241974 13.00222061 -73.20483948 13.00444122 -72.28005981 13.00672913 C-63.83361715 13.02674123 -55.38718241 13.04197884 -46.94072151 13.05181217 C-42.5980033 13.05703746 -38.25530462 13.06412873 -33.91259766 13.07543945 C-29.72401613 13.08628085 -25.53545344 13.09227951 -21.34685898 13.09487724 C-19.74642515 13.09672922 -18.1459924 13.10034552 -16.54556656 13.10573006 C-14.30916339 13.1129571 -12.07283869 13.11399023 -9.83642578 13.11352539 C-7.92447922 13.11685631 -7.92447922 13.11685631 -5.97390747 13.12025452 C-3.07131256 13.20678562 -3.07131256 13.20678562 -1 12 C-0.53101037 9.1840151 -0.53101037 9.1840151 -0.375 5.9375 C-0.30023438 4.83277344 -0.22546875 3.72804688 -0.1484375 2.58984375 C-0.07496094 1.30787109 -0.07496094 1.30787109 0 0 Z " fill="#A5ECFD" transform="translate(75,28)"/>
<path d="M0 0 C2.3125 -0.3125 2.3125 -0.3125 5 0 C7.72508509 3.28889579 8.36146791 5.78287443 8 10 C6.75823305 10.70226141 5.50614401 11.38629109 4.25 12.0625 C3.55390625 12.44535156 2.8578125 12.82820313 2.140625 13.22265625 C-0.40331918 14.1464608 -1.49426997 13.91876768 -4 13 C-5.3479743 12.36345658 -6.68596724 11.70394612 -8 11 C-6.70990357 10.49596232 -5.41786211 9.99690074 -4.125 9.5 C-3.40570313 9.2215625 -2.68640625 8.943125 -1.9453125 8.65625 C0 8 0 8 2 8 C1.2265625 6.8553125 1.2265625 6.8553125 0.4375 5.6875 C-0.036875 4.800625 -0.51125 3.91375 -1 3 C-0.67 2.01 -0.34 1.02 0 0 Z " fill="#121E34" transform="translate(323,49)"/>
<path d="M0 0 C4.73751475 1.18437869 5.15741989 2.12377253 7.75 6.0625 C8.36359375 6.98160156 8.9771875 7.90070312 9.609375 8.84765625 C10.06828125 9.55792969 10.5271875 10.26820312 11 11 C10.67 11.66 10.34 12.32 10 13 C9.34 12.67 8.68 12.34 8 12 C8.33 12.99 8.66 13.98 9 15 C8.34 15 7.68 15 7 15 C6.67 13.68 6.34 12.36 6 11 C5.566875 11.825 5.13375 12.65 4.6875 13.5 C3.8521875 14.7375 3.8521875 14.7375 3 16 C2.01 16 1.02 16 0 16 C0 10.72 0 5.44 0 0 Z " fill="#F5F8F7" transform="translate(445,45)"/>
<path d="M0 0 C24.75 0 49.5 0 75 0 C75 3.96 75 7.92 75 12 C74.34 12.33 73.68 12.66 73 13 C72.505 7.555 72.505 7.555 72 2 C48.24 1.67 24.48 1.34 0 1 C0 0.67 0 0.34 0 0 Z " fill="#33B9DB" transform="translate(0,28)"/>
<path d="M0 0 C0.99 0.33 1.98 0.66 3 1 C1.515 2.485 1.515 2.485 0 4 C1.32 4.99 2.64 5.98 4 7 C3 10 3 10 1 11 C-7.39097744 11.40601504 -7.39097744 11.40601504 -11 9 C-10.34 9 -9.68 9 -9 9 C-9 8.34 -9 7.68 -9 7 C-9.66 6.34 -10.32 5.68 -11 5 C-11 4.34 -11 3.68 -11 3 C-8.02148438 2.70703125 -8.02148438 2.70703125 -5.04296875 2.4140625 C-2.70011858 2.07334609 -2.70011858 2.07334609 0 0 Z " fill="#03172D" transform="translate(411,19)"/>
<path d="M0 0 C1.77074917 -0.02705729 3.54161711 -0.04642195 5.3125 -0.0625 C6.29863281 -0.07410156 7.28476563 -0.08570312 8.30078125 -0.09765625 C11 0 11 0 14 1 C13.67 3.64 13.34 6.28 13 9 C10.03 8.505 10.03 8.505 7 8 C6.67 8.99 6.34 9.98 6 11 C5.0234375 9.20963542 4.046875 7.41927083 3.0703125 5.62890625 C2.08589976 3.83381685 2.08589976 3.83381685 0 3 C0 2.01 0 1.02 0 0 Z " fill="#041A33" transform="translate(207,21)"/>
<path d="M0 0 C2.81256281 -0.02684312 5.62487241 -0.04676188 8.4375 -0.0625 C9.23994141 -0.07087891 10.04238281 -0.07925781 10.86914062 -0.08789062 C12.91295221 -0.0965143 14.95683902 -0.0522815 17 0 C17.33 0.33 17.66 0.66 18 1 C17.75287109 3.37243751 17.40760342 5.65411225 17 8 C16.89945313 8.79019531 16.79890625 9.58039062 16.6953125 10.39453125 C16.32168188 12.75450427 15.94040063 14.80118888 15 17 C11.875 18.5625 11.875 18.5625 9 19 C9.19335938 18.3709375 9.38671875 17.741875 9.5859375 17.09375 C11.2092125 11.75783615 12.69460565 6.42240732 14 1 C9.05 1.33 4.1 1.66 -1 2 C-0.67 1.34 -0.34 0.68 0 0 Z " fill="#E5E8ED" transform="translate(239,18)"/>
<path d="M0 0 C20.295 0.495 20.295 0.495 41 1 C40.67 1.66 40.34 2.32 40 3 C26.8 3 13.6 3 0 3 C0 2.01 0 1.02 0 0 Z " fill="#96F8FE" transform="translate(0,80)"/>
<path d="M0 0 C2 2 2 2 2 5 C4.64 5.33 7.28 5.66 10 6 C8.25 12.75 8.25 12.75 6 15 C2.875 15.125 2.875 15.125 0 15 C0.37125 14.278125 0.7425 13.55625 1.125 12.8125 C2.2141869 9.31154212 1.46842648 8.26316996 0 5 C-0.125 2.1875 -0.125 2.1875 0 0 Z " fill="#F2F5FA" transform="translate(216,56)"/>
<path d="M0 0 C1.50156874 3.00313748 1.09281204 5.79067522 1.0625 9.125 C1.05347656 10.40632813 1.04445312 11.68765625 1.03515625 13.0078125 C1.02355469 13.99523437 1.01195312 14.98265625 1 16 C0.67 16 0.34 16 0 16 C-0.495 10.06 -0.495 10.06 -1 4 C-14.86 3.67 -28.72 3.34 -43 3 C-43 2.67 -43 2.34 -43 2 C-41.61663452 1.96241577 -41.61663452 1.96241577 -40.20532227 1.92407227 C-36.74428842 1.82825232 -33.28338353 1.72906582 -29.82250977 1.62768555 C-28.33198748 1.58469436 -26.8414272 1.54299864 -25.35083008 1.50268555 C-16.9160946 1.27364982 -8.38170237 0 0 0 Z " fill="#9EE9FA" transform="translate(43,64)"/>
<path d="M0 0 C2.31 0 4.62 0 7 0 C6.67 0.7425 6.34 1.485 6 2.25 C4.77217129 5.13883312 4.77217129 5.13883312 5 9 C4.32453125 9.06058594 3.6490625 9.12117188 2.953125 9.18359375 C2.06109375 9.26738281 1.1690625 9.35117187 0.25 9.4375 C-0.63171875 9.51871094 -1.5134375 9.59992187 -2.421875 9.68359375 C-4.69350452 9.96238465 -6.79851823 10.38790577 -9 11 C-8.67 9.35 -8.34 7.7 -8 6 C-7.01 6.33 -6.02 6.66 -5 7 C-1.95865509 5.33075929 -1.95865509 5.33075929 -1 3 C-0.34 3.33 0.32 3.66 1 4 C1.66 3.67 2.32 3.34 3 3 C2.01 2.01 1.02 1.02 0 0 Z " fill="#01172D" transform="translate(129,21)"/>
<path d="M0 0 C0.33 0 0.66 0 1 0 C1.33 2.97 1.66 5.94 2 9 C2.33 6.36 2.66 3.72 3 1 C3.33 1 3.66 1 4 1 C4.12117187 1.79664063 4.24234375 2.59328125 4.3671875 3.4140625 C5.61883475 11.34501378 5.61883475 11.34501378 8 19 C6.35 19.33 4.7 19.66 3 20 C2.67 17.69 2.34 15.38 2 13 C1.01 13.33 0.02 13.66 -1 14 C-0.67 9.38 -0.34 4.76 0 0 Z M4 14 C4 17 4 17 4 17 Z " fill="#CDCED5" transform="translate(151,36)"/>
<path d="M0 0 C-5.4799622 4.63689109 -10.88852412 5.22659214 -17.828125 5.36328125 C-18.54484375 5.24339844 -19.2615625 5.12351562 -20 5 C-20.66 4.01 -21.32 3.02 -22 2 C-18.89704677 1.22426169 -16.05538379 0.95305707 -12.875 1 C-8.42123692 1 -4.52010203 -0.10044671 0 0 Z " fill="#172636" transform="translate(288,59)"/>
<path d="M0 0 C-1 3 -1 3 -3.875 4.8125 C-7.34136008 7.23895205 -8.42044534 9.13886639 -10 13 C-11.3271261 9.0186217 -11.06915913 5.14954773 -11 1 C-9.5437328 0.63743142 -8.08488815 0.28520207 -6.625 -0.0625 C-5.40683594 -0.35833984 -5.40683594 -0.35833984 -4.1640625 -0.66015625 C-2 -1 -2 -1 0 0 Z " fill="#EAEEF0" transform="translate(344,18)"/>
<path d="M0 0 C-0.185625 0.61875 -0.37125 1.2375 -0.5625 1.875 C-1.23686176 4.04160178 -1.23686176 4.04160178 0 6 C-4.1795645 8.78637633 -6.14668677 7.79562512 -11 7 C-11 6.67 -11 6.34 -11 6 C-9.35 6 -7.7 6 -6 6 C-6 5.34 -6 4.68 -6 4 C-6.99 4 -7.98 4 -9 4 C-9 3.34 -9 2.68 -9 2 C-9.66 1.34 -10.32 0.68 -11 0 C-9.54263913 -0.19491452 -8.08405407 -0.38069358 -6.625 -0.5625 C-5.81289063 -0.66691406 -5.00078125 -0.77132812 -4.1640625 -0.87890625 C-2 -1 -2 -1 0 0 Z " fill="#092030" transform="translate(278,53)"/>
<path d="M0 0 C0.66 0.66 1.32 1.32 2 2 C2.99 2 3.98 2 5 2 C5 2.99 5 3.98 5 5 C5.99 5 6.98 5 8 5 C4.67692308 8.93846154 4.67692308 8.93846154 1.25 9.25 C0.5075 9.1675 -0.235 9.085 -1 9 C-1.66 10.32 -2.32 11.64 -3 13 C-3.27429625 7.60550707 -3.36055646 4.48074195 0 0 Z " fill="#18283C" transform="translate(257,23)"/>
<path d="M0 0 C1.5 1.125 1.5 1.125 3 3 C3.1875 6.1875 3.1875 6.1875 3 9 C3.33 6.69 3.66 4.38 4 2 C4.33 2 4.66 2 5 2 C5.33 5.3 5.66 8.6 6 12 C2.97265625 13.12304688 2.97265625 13.12304688 -0.0546875 14.24609375 C-2.03648845 14.97916854 -2.03648845 14.97916854 -4 16 C-4.99 15.34 -5.98 14.68 -7 14 C-6.21625 13.71125 -5.4325 13.4225 -4.625 13.125 C-1.90328368 12.15087746 -1.90328368 12.15087746 0 10 C0.64767793 7.42938689 0.64767793 7.42938689 1 5 C0.01 4.67 -0.98 4.34 -2 4 C-1.34 2.68 -0.68 1.36 0 0 Z " fill="#D6DAE0" transform="translate(290,18)"/>
<path d="M0 0 C0 0.33 0 0.66 0 1 C-2.31 1.33 -4.62 1.66 -7 2 C-6.38125 2.45375 -5.7625 2.9075 -5.125 3.375 C-3 5 -3 5 -1 7 C-1.99 7.66 -2.98 8.32 -4 9 C-4 9.33 -4 9.66 -4 10 C-5.65 10 -7.3 10 -9 10 C-9.103125 9.360625 -9.20625 8.72125 -9.3125 8.0625 C-9.539375 7.381875 -9.76625 6.70125 -10 6 C-10.99 5.67 -11.98 5.34 -13 5 C-12.34 4.67 -11.68 4.34 -11 4 C-11.66 3.34 -12.32 2.68 -13 2 C-8.50343896 -0.24828052 -4.92127034 -0.16682272 0 0 Z " fill="#223648" transform="translate(357,17)"/>
<path d="M0 0 C-0.66 1.65 -1.32 3.3 -2 5 C0.475 5.99 0.475 5.99 3 7 C-0.54667178 8.25127906 -2.72253438 7.72285053 -6.25 6.5625 C-7.14203125 6.27503906 -8.0340625 5.98757812 -8.953125 5.69140625 C-9.62859375 5.46324219 -10.3040625 5.23507813 -11 5 C-11 4.01 -11 3.02 -11 2 C-6.89657963 -0.38570952 -4.61380251 -1.49270081 0 0 Z " fill="#1A2C3F" transform="translate(272,39)"/>
<path d="M0 0 C-0.33 0.66 -0.66 1.32 -1 2 C-0.835 2.639375 -0.67 3.27875 -0.5 3.9375 C0 6 0 6 -1 9 C-2.32 9 -3.64 9 -5 9 C-5.33 7.68 -5.66 6.36 -6 5 C-7.65 5.66 -9.3 6.32 -11 7 C-9.02364861 0.90624987 -6.51951007 -1.99207252 0 0 Z " fill="#071525" transform="translate(348,21)"/>
<path d="M0 0 C2.98479194 4.47718792 4 8.63824093 4 14 C4.99 14 5.98 14 7 14 C7.33 11.36 7.66 8.72 8 6 C9.10844919 9.32534757 8.84454356 11.62182575 8 15 C6.02 15 4.04 15 2 15 C1.67 15.99 1.34 16.98 1 18 C1.020625 17.113125 1.04125 16.22625 1.0625 15.3125 C1.10448881 12.08292905 1.10448881 12.08292905 0.4375 9.3125 C0 7 0 7 1 4 C0.34 4 -0.32 4 -1 4 C-0.67 2.68 -0.34 1.36 0 0 Z " fill="#253446" transform="translate(224,34)"/>
<path d="M0 0 C0.66 0 1.32 0 2 0 C3.31223496 3.93670488 2.24296256 6.12488144 1 10 C0.67 10 0.34 10 0 10 C-0.33 11.65 -0.66 13.3 -1 15 C-1.66 15 -2.32 15 -3 15 C-3.35050464 9.158256 -3.16727335 5.1468192 0 0 Z " fill="#232C3E" transform="translate(386,29)"/>
<path d="M0 0 C1.32 0 2.64 0 4 0 C3.85433594 0.53238281 3.70867187 1.06476562 3.55859375 1.61328125 C2.64810389 5.5035561 2.16642452 9.46526826 1.59765625 13.41796875 C1.40042969 14.27003906 1.20320312 15.12210938 1 16 C0.34 16.33 -0.32 16.66 -1 17 C-1.22262606 14.91814549 -1.42757926 12.83439574 -1.625 10.75 C-1.74101562 9.58984375 -1.85703125 8.4296875 -1.9765625 7.234375 C-1.99955595 4.06127909 -1.69705154 2.61682756 0 0 Z " fill="#F4F1F7" transform="translate(153,29)"/>
<path d="M0 0 C2.31 0 4.62 0 7 0 C6.67 1.65 6.34 3.3 6 5 C5.34 4.34 4.68 3.68 4 3 C3.67 4.32 3.34 5.64 3 7 C3.33 6.67 3.66 6.34 4 6 C4.33 7.32 4.66 8.64 5 10 C3.35 9.67 1.7 9.34 0 9 C0 6.03 0 3.06 0 0 Z " fill="#071026" transform="translate(295,20)"/>
<path d="M0 0 C1.8871875 0.0309375 1.8871875 0.0309375 3.8125 0.0625 C4.1425 1.0525 4.4725 2.0425 4.8125 3.0625 C3.265625 3.0315625 3.265625 3.0315625 1.6875 3 C-1.73902969 3.05526661 -4.83322414 3.40800715 -8.1875 4.0625 C-8.5175 5.0525 -8.8475 6.0425 -9.1875 7.0625 C-10.5075 6.7325 -11.8275 6.4025 -13.1875 6.0625 C-12.8575 5.0725 -12.5275 4.0825 -12.1875 3.0625 C-8.16637525 1.1577567 -4.45431253 -0.07302152 0 0 Z " fill="#353B4C" transform="translate(130.1875,16.9375)"/>
<path d="M0 0 C0.598125 0.165 1.19625 0.33 1.8125 0.5 C4.25988354 1.05940195 5.63996734 0.75858193 8 0 C7.505 0.433125 7.01 0.86625 6.5 1.3125 C4.66781808 2.99740483 4.66781808 2.99740483 5 6 C4.01 6 3.02 6 2 6 C2 7.32 2 8.64 2 10 C0.02 9.34 -1.96 8.68 -4 8 C-2.68 7.01 -1.36 6.02 0 5 C-0.2784375 4.0409375 -0.2784375 4.0409375 -0.5625 3.0625 C-0.706875 2.381875 -0.85125 1.70125 -1 1 C-0.67 0.67 -0.34 0.34 0 0 Z " fill="#102338" transform="translate(280,21)"/>
<path d="M0 0 C0.66 0 1.32 0 2 0 C1.35812082 5.13503344 0.31727753 9.9943454 -1 15 C-1.99 15 -2.98 15 -4 15 C-4.33 12.69 -4.66 10.38 -5 8 C-4.360625 7.608125 -3.72125 7.21625 -3.0625 6.8125 C-0.56221181 4.61527704 -0.35049575 3.24208567 0 0 Z " fill="#E3EAEF" transform="translate(232,33)"/>
<path d="M0 0 C0.7425 0.391875 1.485 0.78375 2.25 1.1875 C1.46625 1.64125 0.6825 2.095 -0.125 2.5625 C-3.84558679 6.28308679 -4.09962042 10.10094923 -4.75 15.1875 C-5.08 15.1875 -5.41 15.1875 -5.75 15.1875 C-6.02573092 13.08655026 -6.26978976 10.98142365 -6.5 8.875 C-6.63921875 7.70324219 -6.7784375 6.53148437 -6.921875 5.32421875 C-6.75 2.1875 -6.75 2.1875 -4.9375 0.21875 C-2.75 -0.8125 -2.75 -0.8125 0 0 Z " fill="#1A273A" transform="translate(173.75,28.8125)"/>
<path d="M0 0 C0.33 0.99 0.66 1.98 1 3 C1.66 3 2.32 3 3 3 C3.36630156 6.93774177 3.30233203 8.56539771 1 11.875 C0.34 12.57625 -0.32 13.2775 -1 14 C-2.65 13.67 -4.3 13.34 -6 13 C-5.34 12.67 -4.68 12.34 -4 12 C-3.34 12.33 -2.68 12.66 -2 13 C-1.93941406 12.22914062 -1.87882812 11.45828125 -1.81640625 10.6640625 C-1.73261719 9.66117188 -1.64882813 8.65828125 -1.5625 7.625 C-1.48128906 6.62726562 -1.40007812 5.62953125 -1.31640625 4.6015625 C-1 2 -1 2 0 0 Z " fill="#041423" transform="translate(289,45)"/>
<path d="M0 0 C1.18851563 0.00902344 2.37703125 0.01804687 3.6015625 0.02734375 C4.51679688 0.03894531 5.43203125 0.05054687 6.375 0.0625 C6.045 2.0425 5.715 4.0225 5.375 6.0625 C4.385 6.3925 3.395 6.7225 2.375 7.0625 C3.375 4.0625 3.375 4.0625 4.375 2.0625 C2.7704444 2.20398989 1.16636233 2.35085686 -0.4375 2.5 C-1.33082031 2.58121094 -2.22414062 2.66242187 -3.14453125 2.74609375 C-5.75243559 2.99739767 -5.75243559 2.99739767 -8.625 4.0625 C-8.625 3.0725 -8.625 2.0825 -8.625 1.0625 C-5.74084117 -0.37957941 -3.20778472 -0.03144887 0 0 Z " fill="#151C2E" transform="translate(246.625,18.9375)"/>
<path d="M0 0 C0.66 0 1.32 0 2 0 C2.12375 1.093125 2.2475 2.18625 2.375 3.3125 C2.75464801 7.07381802 2.75464801 7.07381802 5 10 C4 13 4 13 1.75 14.125 C-0.8273678 14.94507157 -3.33619068 15.54334697 -6 16 C-5.195625 15.21625 -4.39125 14.4325 -3.5625 13.625 C-0.5800413 10.68672048 -0.5800413 10.68672048 0.09765625 6.8359375 C0.08605469 6.02382813 0.07445312 5.21171875 0.0625 4.375 C0.05347656 3.55773438 0.04445312 2.74046875 0.03515625 1.8984375 C0.02355469 1.27195313 0.01195312 0.64546875 0 0 Z " fill="#152434" transform="translate(137,35)"/>
<path d="M0 0 C0.99 0.33 1.98 0.66 3 1 C2.01 1.495 2.01 1.495 1 2 C1.556875 2.8353125 1.556875 2.8353125 2.125 3.6875 C3 6 3 6 2.125 8.75 C1.75375 9.4925 1.3825 10.235 1 11 C0.34 11 -0.32 11 -1 11 C-1.33 11.66 -1.66 12.32 -2 13 C-2.66 12.34 -3.32 11.68 -4 11 C-2.68 10.67 -1.36 10.34 0 10 C0 9.34 0 8.68 0 8 C-0.66 7.67 -1.32 7.34 -2 7 C-3.125 4.9375 -3.125 4.9375 -4 3 C-2.1875 1.4375 -2.1875 1.4375 0 0 Z " fill="#0E2338" transform="translate(414,19)"/>
<path d="M0 0 C0.66 0 1.32 0 2 0 C2.66 1.98 3.32 3.96 4 6 C3.01 6.33 2.02 6.66 1 7 C1 7.99 1 8.98 1 10 C1.66 10 2.32 10 3 10 C2.67 10.66 2.34 11.32 2 12 C-0.5625 12.625 -0.5625 12.625 -3 13 C-2.67 12.34 -2.34 11.68 -2 11 C-1.34 11 -0.68 11 0 11 C-0.309375 10.071875 -0.61875 9.14375 -0.9375 8.1875 C-1.625 6.125 -2.3125 4.0625 -3 2 C-2.01 2 -1.02 2 0 2 C0 1.34 0 0.68 0 0 Z " fill="#DCE3E7" transform="translate(331,48)"/>
<path d="M0 0 C0.33 0 0.66 0 1 0 C0.93037367 3.72817347 0.76562117 7.34442851 0 11 C-2.5625 13.1875 -2.5625 13.1875 -5 14 C-4.67 10.37 -4.34 6.74 -4 3 C-2.02 3.495 -2.02 3.495 0 4 C0 2.68 0 1.36 0 0 Z " fill="#0E2234" transform="translate(389,35)"/>
<path d="M0 0 C1.65 0 3.3 0 5 0 C4.67 4.62 4.34 9.24 4 14 C2.68 14.33 1.36 14.66 0 15 C0.33 14.34 0.66 13.68 1 13 C1.22858114 10.9625237 1.41024278 8.91959697 1.5625 6.875 C1.64628906 5.77929688 1.73007813 4.68359375 1.81640625 3.5546875 C1.87699219 2.71164063 1.93757813 1.86859375 2 1 C1.34 0.67 0.68 0.34 0 0 Z " fill="#C1F7FD" transform="translate(69,47)"/>
<path d="M0 0 C2.81256281 -0.02684312 5.62487241 -0.04676188 8.4375 -0.0625 C9.23994141 -0.07087891 10.04238281 -0.07925781 10.86914062 -0.08789062 C12.91295221 -0.0965143 14.95683902 -0.0522815 17 0 C18 1 18 1 18.0625 3.5625 C18.041875 4.366875 18.02125 5.17125 18 6 C16.68 6.33 15.36 6.66 14 7 C14 5.02 14 3.04 14 1 C9.05 1.33 4.1 1.66 -1 2 C-0.67 1.34 -0.34 0.68 0 0 Z " fill="#DADAE0" transform="translate(239,18)"/>
<path d="M0 0 C0.66 0 1.32 0 2 0 C2.33 2.31 2.66 4.62 3 7 C1.02 7.99 1.02 7.99 -1 9 C-2.5 7.625 -2.5 7.625 -4 6 C-4 2.99472353 -2.05564773 2.05564773 0 0 Z " fill="#021828" transform="translate(417,26)"/>
<path d="M0 0 C0 3 0 3 0 3 Z M-5 2 C-3.35 2.33 -1.7 2.66 0 3 C0.66 4.98 1.32 6.96 2 9 C-1.96 8.67 -5.92 8.34 -10 8 C-7.8614515 5.8614515 -6.86724686 5.57344937 -4 5 C-4.33 4.01 -4.66 3.02 -5 2 Z " fill="#02132B" transform="translate(184,52)"/>
<path d="M0 0 C0.33 0.66 0.66 1.32 1 2 C1.66 2 2.32 2 3 2 C3.33 1.34 3.66 0.68 4 0 C4.66 0.33 5.32 0.66 6 1 C6 1.66 6 2.32 6 3 C6.5775 2.67 7.155 2.34 7.75 2 C10 1 10 1 14 1 C14 1.99 14 2.98 14 4 C9.38 4 4.76 4 0 4 C-0.33 3.34 -0.66 2.68 -1 2 C-0.67 1.34 -0.34 0.68 0 0 Z " fill="#091325" transform="translate(460,58)"/>
<path d="M0 0 C0.66 0 1.32 0 2 0 C2.3125 2.8125 2.3125 2.8125 2 6 C-0.85021343 8.29600526 -3.49193868 9.18295153 -7 10 C-6.02223933 8.51990357 -5.0427506 7.04094856 -4.0625 5.5625 C-3.51722656 4.73878906 -2.97195312 3.91507813 -2.41015625 3.06640625 C-1 1 -1 1 0 0 Z " fill="#EDEFF1" transform="translate(151,49)"/>
<path d="M0 0 C1.65 0 3.3 0 5 0 C4.67257813 0.55171875 4.34515625 1.1034375 4.0078125 1.671875 C2.83212285 4.38780923 2.79751362 6.30551759 2.875 9.25 C2.89304687 10.14203125 2.91109375 11.0340625 2.9296875 11.953125 C2.95289062 12.62859375 2.97609375 13.3040625 3 14 C1.68 13.67 0.36 13.34 -1 13 C-0.67 11.35 -0.34 9.7 0 8 C-0.33 8 -0.66 8 -1 8 C-1.125 2.25 -1.125 2.25 0 0 Z " fill="#142239" transform="translate(116,32)"/>
<path d="M0 0 C1.32 1.65 2.64 3.3 4 5 C3.01 5 2.02 5 1 5 C0.67 11.27 0.34 17.54 0 24 C-0.33 24 -0.66 24 -1 24 C-1.33 16.74 -1.66 9.48 -2 2 C-1.34 2 -0.68 2 0 2 C0 1.34 0 0.68 0 0 Z " fill="#262F3F" transform="translate(118,56)"/>
<path d="M0 0 C0.33 0 0.66 0 1 0 C1.66 5.28 2.32 10.56 3 16 C1.66666667 16 0.33333333 16 -1 16 C-1.02725341 14.2709226 -1.04650987 12.54171824 -1.0625 10.8125 C-1.07410156 9.84957031 -1.08570313 8.88664062 -1.09765625 7.89453125 C-1.00486622 5.14423487 -0.62111685 2.67520409 0 0 Z " fill="#0E2439" transform="translate(234,32)"/>
<path d="M0 0 C0.25 3.3125 0.25 3.3125 0 7 C-1.875 8.9375 -1.875 8.9375 -4 10 C-4.66 10 -5.32 10 -6 10 C-6.3125 7.8125 -6.3125 7.8125 -6 5 C-1.66666667 0 -1.66666667 0 0 0 Z " fill="#F9FBF8" transform="translate(124,33)"/>
<path d="M0 0 C-5.53846154 5.84615385 -5.53846154 5.84615385 -9 7 C-9.99 6.67 -10.98 6.34 -12 6 C-10.35 5.34 -8.7 4.68 -7 4 C-7 3.34 -7 2.68 -7 2 C-7.66 1.67 -8.32 1.34 -9 1 C-3.375 -1.125 -3.375 -1.125 0 0 Z " fill="#1C2636" transform="translate(146,56)"/>
<path d="M0 0 C0 0.99 0 1.98 0 3 C-3.47325181 4.1577506 -6.36067448 4.06866652 -10 4 C-10 3.34 -10 2.68 -10 2 C-9.34 2 -8.68 2 -8 2 C-7.67 1.34 -7.34 0.68 -7 0 C-4.0262656 -1.09036928 -3.11592499 -1.03864166 0 0 Z " fill="#E3E6EA" transform="translate(279,49)"/>
<path d="M0 0 C0.66 0 1.32 0 2 0 C2 0.99 2 1.98 2 3 C2.99 3 3.98 3 5 3 C5 2.01 5 1.02 5 0 C5.99 1.65 6.98 3.3 8 5 C7.34 5 6.68 5 6 5 C6 6.65 6 8.3 6 10 C2.51668565 6.98112756 1.20842856 4.43090471 0 0 Z " fill="#17243A" transform="translate(333,48)"/>
<path d="M0 0 C0.66 0.33 1.32 0.66 2 1 C1.505 1.391875 1.01 1.78375 0.5 2.1875 C-1.26914795 3.92108918 -1.26914795 3.92108918 -0.9375 6.4375 C-1 9 -1 9 -3 11.3125 C-3.66 11.869375 -4.32 12.42625 -5 13 C-4.64989059 4.80743982 -4.64989059 4.80743982 -1.9375 1.4375 C-1.298125 0.963125 -0.65875 0.48875 0 0 Z " fill="#DADFE2" transform="translate(402,31)"/>
<path d="M0 0 C2.45823172 3.68734758 3.01242616 6.69699971 4 11 C3.01 11.33 2.02 11.66 1 12 C-1.09440189 8.59659693 -1.25797575 5.95562822 -1 2 C-0.67 1.34 -0.34 0.68 0 0 Z " fill="#E9EDF1" transform="translate(204,20)"/>
<path d="M0 0 C0.66 0 1.32 0 2 0 C2 0.99 2 1.98 2 3 C7.1693489 2.59443869 7.1693489 2.59443869 12 1 C12 2.32 12 3.64 12 5 C8.04 5 4.08 5 0 5 C0 3.35 0 1.7 0 0 Z " fill="#0B1526" transform="translate(190,57)"/>
<path d="M0 0 C3.2578125 -0.29296875 3.2578125 -0.29296875 7.125 -0.1875 C9.04699219 -0.14689453 9.04699219 -0.14689453 11.0078125 -0.10546875 C11.99523437 -0.07066406 12.98265625 -0.03585938 14 0 C13.67 1.65 13.34 3.3 13 5 C12.01 4.67 11.02 4.34 10 4 C10.33 3.01 10.66 2.02 11 1 C7.7 1 4.4 1 1 1 C0.67 1.99 0.34 2.98 0 4 C-0.66 3.67 -1.32 3.34 -2 3 C-1.34 2.01 -0.68 1.02 0 0 Z " fill="#1F2934" transform="translate(457,19)"/>
<path d="M0 0 C1.32 0.33 2.64 0.66 4 1 C4.02688151 2.64574566 4.04634123 4.29161413 4.0625 5.9375 C4.07410156 6.85402344 4.08570312 7.77054688 4.09765625 8.71484375 C4 11 4 11 3 12 C1.00041636 12.04080783 -1.00045254 12.04254356 -3 12 C-3 11.67 -3 11.34 -3 11 C-1.35 11 0.3 11 2 11 C1.34 7.37 0.68 3.74 0 0 Z " fill="#23B8D7" transform="translate(67,49)"/>
<path d="M0 0 C2.60608273 2.5162178 4.89381685 5.05134359 7 8 C6.67 8.66 6.34 9.32 6 10 C5.34 9.67 4.68 9.34 4 9 C4.33 9.99 4.66 10.98 5 12 C4.34 12 3.68 12 3 12 C2.566875 10.2984375 2.566875 10.2984375 2.125 8.5625 C1.75375 7.386875 1.3825 6.21125 1 5 C0.34 4.67 -0.32 4.34 -1 4 C-0.67 2.68 -0.34 1.36 0 0 Z " fill="#DADEE3" transform="translate(449,48)"/>
<path d="M0 0 C0.66 0.33 1.32 0.66 2 1 C2 1.99 2 2.98 2 4 C0.68 4 -0.64 4 -2 4 C-2 4.99 -2 5.98 -2 7 C-4.31 6.67 -6.62 6.34 -9 6 C-8.67 5.01 -8.34 4.02 -8 3 C-5.68970915 2.25740651 -3.354248 1.588562 -1 1 C-0.67 0.67 -0.34 0.34 0 0 Z " fill="#172536" transform="translate(413,48)"/>
<path d="M0 0 C1.953125 0.6796875 1.953125 0.6796875 4 2 C4.609375 4.3828125 4.609375 4.3828125 4.75 7.125 C4.80671875 8.03507812 4.8634375 8.94515625 4.921875 9.8828125 C4.94765625 10.58148438 4.9734375 11.28015625 5 12 C4.67 10.68 4.34 9.36 4 8 C3.34 8 2.68 8 2 8 C2 7.01 2 6.02 2 5 C1.34 5 0.68 5 0 5 C0 3.35 0 1.7 0 0 Z " fill="#1D2836" transform="translate(288,40)"/>
<path d="M0 0 C2.631724 2.45627573 4.81527263 4.55352037 6 8 C5.64827002 10.98970481 5.17288535 11.82711465 3 14 C3 11.69 3 9.38 3 7 C2.34 7 1.68 7 1 7 C0.67 4.69 0.34 2.38 0 0 Z " fill="#202F40" transform="translate(145,24)"/>
<path d="M0 0 C0.99 0 1.98 0 3 0 C3 0.66 3 1.32 3 2 C4.32 1.67 5.64 1.34 7 1 C6.75 2.875 6.75 2.875 6 5 C3.9375 6.25 3.9375 6.25 2 7 C1.67 6.01 1.34 5.02 1 4 C0.34 4 -0.32 4 -1 4 C-0.67 3.34 -0.34 2.68 0 2 C0.66 2.33 1.32 2.66 2 3 C2 2.34 2 1.68 2 1 C1.34 0.67 0.68 0.34 0 0 Z " fill="#122236" transform="translate(345,27)"/>
<path d="M0 0 C0.33 1.32 0.66 2.64 1 4 C1.99 4 2.98 4 4 4 C4 4.66 4 5.32 4 6 C7.3 6.33 10.6 6.66 14 7 C14 7.33 14 7.66 14 8 C7.49686791 8.46450943 3.5825192 7.32575612 -2 4 C-1.34 2.68 -0.68 1.36 0 0 Z " fill="#364050" transform="translate(166,56)"/>
<path d="M0 0 C1.2065625 0.0309375 1.2065625 0.0309375 2.4375 0.0625 C2.7675 1.3825 3.0975 2.7025 3.4375 4.0625 C1.7875 4.3925 0.1375 4.7225 -1.5625 5.0625 C-2.2225 3.7425 -2.8825 2.4225 -3.5625 1.0625 C-2.5625 0.0625 -2.5625 0.0625 0 0 Z " fill="#1D2339" transform="translate(325.5625,48.9375)"/>
<path d="M0 0 C0.99 0.33 1.98 0.66 3 1 C4.7634375 0.9690625 4.7634375 0.9690625 6.5625 0.9375 C10 1 10 1 12 3 C11.09507812 3.09087891 11.09507812 3.09087891 10.171875 3.18359375 C8.97304687 3.30927734 8.97304687 3.30927734 7.75 3.4375 C6.96109375 3.51871094 6.1721875 3.59992187 5.359375 3.68359375 C3.17635361 3.97634993 1.1226818 4.42064419 -1 5 C-0.67 3.35 -0.34 1.7 0 0 Z " fill="#061124" transform="translate(121,27)"/>
<path d="M0 0 C-3.50538557 1.96301592 -7.13351728 2.95902388 -11 4 C-11.66 3.34 -12.32 2.68 -13 2 C-8.22169095 -0.91360308 -5.44893869 -1.19876651 0 0 Z " fill="#192634" transform="translate(177,19)"/>
<path d="M0 0 C0.99 0.66 1.98 1.32 3 2 C2.2575 2.556875 2.2575 2.556875 1.5 3.125 C-0.59755514 5.74694393 -0.21743835 7.73842472 0 11 C-3 10 -3 10 -3.9375 8.3125 C-4.03398292 4.74263198 -2.08083079 2.77444105 0 0 Z " fill="#242D3D" transform="translate(210,69)"/>
<path d="M0 0 C0.33 0 0.66 0 1 0 C1 2.31 1 4.62 1 7 C-1.97 7 -4.94 7 -8 7 C-8 6.34 -8 5.68 -8 5 C-6.865625 4.731875 -5.73125 4.46375 -4.5625 4.1875 C-3.386875 3.795625 -2.21125 3.40375 -1 3 C-0.67 2.01 -0.34 1.02 0 0 Z " fill="#09C3E5" transform="translate(72,30)"/>
<path d="M0 0 C2 2 2 2 2 5 C4.64 5.33 7.28 5.66 10 6 C10 6.33 10 6.66 10 7 C7.03 7.66 4.06 8.32 1 9 C0.29925156 5.846632 0 3.27275026 0 0 Z " fill="#BDC3C8" transform="translate(216,56)"/>
<path d="M0 0 C1.65 0 3.3 0 5 0 C5.33 0.99 5.66 1.98 6 3 C8.31 3.33 10.62 3.66 13 4 C13 4.33 13 4.66 13 5 C8.07872966 5.16682272 4.49656104 5.24828052 0 3 C0 2.01 0 1.02 0 0 Z " fill="#3C4156" transform="translate(344,59)"/>
<path d="M0 0 C0.66 0.66 1.32 1.32 2 2 C2.99 2 3.98 2 5 2 C5.33 1.34 5.66 0.68 6 0 C6.33 0.99 6.66 1.98 7 3 C7.66 3.33 8.32 3.66 9 4 C6.36 4.66 3.72 5.32 1 6 C1 5.34 1 4.68 1 4 C0.01 3.67 -0.98 3.34 -2 3 C-1.34 2.67 -0.68 2.34 0 2 C0 1.34 0 0.68 0 0 Z " fill="#10243E" transform="translate(465,55)"/>
<path d="M0 0 C1.32 0.33 2.64 0.66 4 1 C4.93423645 4.01031744 5.04449911 4.86650268 4 8 C2.68 8 1.36 8 0 8 C0 5.36 0 2.72 0 0 Z " fill="#001630" transform="translate(343,22)"/>
<path d="M0 0 C3.465 1.98 3.465 1.98 7 4 C7 4.66 7 5.32 7 6 C4.69 6.33 2.38 6.66 0 7 C-0.33 6.34 -0.66 5.68 -1 5 C-0.34 5 0.32 5 1 5 C1 4.34 1 3.68 1 3 C0.34 2.67 -0.32 2.34 -1 2 C-0.67 1.34 -0.34 0.68 0 0 Z " fill="#EAEDEF" transform="translate(254,57)"/>
<path d="M0 0 C-1.5625 2 -1.5625 2 -4 4 C-7.75 4.25 -7.75 4.25 -11 4 C-7.26280719 0.48264206 -5.13496308 -0.47767098 0 0 Z " fill="#0B1523" transform="translate(421,58)"/>
<path d="M0 0 C1.98 0.495 1.98 0.495 4 1 C4 2.65 4 4.3 4 6 C4.99 6.33 5.98 6.66 7 7 C3.31245243 6.50168276 1.39509338 5.89932357 -1 3 C-0.67 2.01 -0.34 1.02 0 0 Z " fill="#E2E7EA" transform="translate(348,44)"/>
<path d="M0 0 C0.515625 0.2475 1.03125 0.495 1.5625 0.75 C1.5625 1.41 1.5625 2.07 1.5625 2.75 C-5.86607143 5.17857143 -5.86607143 5.17857143 -9.4375 3.75 C-3.0375 -0.31153846 -3.0375 -0.31153846 0 0 Z " fill="#222E3C" transform="translate(267.4375,18.25)"/>
<path d="M0 0 C3.96 0.33 7.92 0.66 12 1 C12 1.66 12 2.32 12 3 C10.37581255 3.08090971 8.75048255 3.13914995 7.125 3.1875 C5.76761719 3.23970703 5.76761719 3.23970703 4.3828125 3.29296875 C3.20332031 3.14794922 3.20332031 3.14794922 2 3 C1.34 2.01 0.68 1.02 0 0 Z " fill="#2E3146" transform="translate(266,61)"/>
<path d="M0 0 C0 0.99 0 1.98 0 3 C-6.0546875 3.1953125 -6.0546875 3.1953125 -8 3 C-8.66 2.34 -9.32 1.68 -10 1 C-6.61981469 -0.04005702 -3.5219721 -0.08004482 0 0 Z " fill="#0A0E25" transform="translate(358,60)"/>
<path d="M0 0 C3.4375 0.8125 3.4375 0.8125 7 2 C7.33 2.99 7.66 3.98 8 5 C8.66 5.33 9.32 5.66 10 6 C5.8333396 5.52651586 3.07115285 4.95303159 0 2 C0 1.34 0 0.68 0 0 Z " fill="#212E3A" transform="translate(305,57)"/>
<path d="M0 0 C2.97 0 5.94 0 9 0 C7 3 7 3 5.0546875 3.51171875 C4.33539063 3.56972656 3.61609375 3.62773438 2.875 3.6875 C0.956875 3.8421875 0.956875 3.8421875 -1 4 C-0.67 2.68 -0.34 1.36 0 0 Z " fill="#142337" transform="translate(122,51)"/>
<path d="M0 0 C0.66 0.66 1.32 1.32 2 2 C4.21072977 2.24253813 4.21072977 2.24253813 6.625 2.125 C7.44226563 2.10695313 8.25953125 2.08890625 9.1015625 2.0703125 C9.72804688 2.04710937 10.35453125 2.02390625 11 2 C11 2.66 11 3.32 11 4 C5.72 4 0.44 4 -5 4 C-4.01 3.67 -3.02 3.34 -2 3 C-1.67 2.34 -1.34 1.68 -1 1 C-0.67 0.67 -0.34 0.34 0 0 Z " fill="#040F1B" transform="translate(318,26)"/>
<path d="M0 0 C1.32 0 2.64 0 4 0 C4 1.98 4 3.96 4 6 C2.68 6 1.36 6 0 6 C0 4.02 0 2.04 0 0 Z " fill="#031940" transform="translate(324,21)"/>
<path d="M0 0 C1.8871875 0.061875 1.8871875 0.061875 3.8125 0.125 C3.8125 0.455 3.8125 0.785 3.8125 1.125 C2.1625 1.125 0.5125 1.125 -1.1875 1.125 C-1.5175 2.115 -1.8475 3.105 -2.1875 4.125 C-3.8375 4.455 -5.4875 4.785 -7.1875 5.125 C-7.1875 4.135 -7.1875 3.145 -7.1875 2.125 C-4.09861478 0.06574319 -3.47814073 -0.1140374 0 0 Z " fill="#011020" transform="translate(273.1875,17.875)"/>
<path d="M0 0 C1.99097846 2.98646769 2.94124926 5.59687262 4 9 C2.35 9.33 0.7 9.66 -1 10 C-0.67 6.7 -0.34 3.4 0 0 Z " fill="#DDE0E5" transform="translate(155,46)"/>
<path d="M0 0 C0.66 0.33 1.32 0.66 2 1 C1.125 5.875 1.125 5.875 0 7 C-1.99958364 7.04080783 -4.00045254 7.04254356 -6 7 C-5.38125 6.5875 -4.7625 6.175 -4.125 5.75 C-1.93231719 3.94426121 -1.07211583 2.5909466 0 0 Z " fill="#D9DBE3" transform="translate(222,64)"/>
<path d="M0 0 C0.12375 0.639375 0.2475 1.27875 0.375 1.9375 C0.684375 2.9584375 0.684375 2.9584375 1 4 C1.66 4.33 2.32 4.66 3 5 C2.01 5.99 1.02 6.98 0 8 C-0.66 7.67 -1.32 7.34 -2 7 C-1.67 6.34 -1.34 5.68 -1 5 C-1.99 4.67 -2.98 4.34 -4 4 C-2.68 2.68 -1.36 1.36 0 0 Z " fill="#1A2D40" transform="translate(364,45)"/>
<path d="M0 0 C2.4375 0.375 2.4375 0.375 5 1 C5.99 1 6.98 1 8 1 C7.67 2.32 7.34 3.64 7 5 C4.03 4.01 1.06 3.02 -2 2 C-1.34 1.34 -0.68 0.68 0 0 Z " fill="#041428" transform="translate(270,42)"/>
<path d="M0 0 C1.65 0 3.3 0 5 0 C5.33 1.65 5.66 3.3 6 5 C4.02 5 2.04 5 0 5 C0 3.35 0 1.7 0 0 Z " fill="#01132A" transform="translate(255,31)"/>
<path d="M0 0 C0 0.33 0 0.66 0 1 C-1.546875 1.3403125 -1.546875 1.3403125 -3.125 1.6875 C-7.34408258 2.86471856 -9.81536784 5.04838971 -13 8 C-10.64175733 0.72875178 -7.4631798 -0.43056807 0 0 Z " fill="#B6BCC5" transform="translate(131,30)"/>
<path d="M0 0 C0.6875 1.6875 0.6875 1.6875 1 4 C-0.3125 6.75 -0.3125 6.75 -2 9 C-2.66 9 -3.32 9 -4 9 C-3.46930939 5.17902761 -2.50298434 2.93828597 0 0 Z " fill="#202A37" transform="translate(161,23)"/>
<path d="M0 0 C0.99 0.33 1.98 0.66 3 1 C3.6875 3.0625 3.6875 3.0625 4 5 C2.68 5.99 1.36 6.98 0 8 C0.33 6.35 0.66 4.7 1 3 C0.34 3.66 -0.32 4.32 -1 5 C-1.33 3.68 -1.66 2.36 -2 1 C-1.34 0.67 -0.68 0.34 0 0 Z " fill="#021327" transform="translate(260,22)"/>
<path d="M0 0 C-0.33 1.32 -0.66 2.64 -1 4 C-4 4 -4 4 -6 3 C-6 2.01 -6 1.02 -6 0 C-3.50907189 -1.24546405 -2.58919267 -0.7767578 0 0 Z " fill="#06152B" transform="translate(291,23)"/>
<path d="M0 0 C1.32 0.33 2.64 0.66 4 1 C4 1.66 4 2.32 4 3 C3.01 3.495 3.01 3.495 2 4 C2.66 4.33 3.32 4.66 4 5 C4 5.66 4 6.32 4 7 C2.02 6.34 0.04 5.68 -2 5 C-1.67 4.34 -1.34 3.68 -1 3 C-0.34 3 0.32 3 1 3 C0.67 2.01 0.34 1.02 0 0 Z " fill="#0D1C40" transform="translate(324,54)"/>
<path d="M0 0 C0.99 0.33 1.98 0.66 3 1 C2.67 1.66 2.34 2.32 2 3 C2.39938767 5.09821215 2.39938767 5.09821215 3 7 C1.0625 6.25 1.0625 6.25 -1 5 C-1.75 2.875 -1.75 2.875 -2 1 C-1.34 0.67 -0.68 0.34 0 0 Z " fill="#16222F" transform="translate(257,35)"/>
<path d="M0 0 C-1.65 1.65 -3.3 3.3 -5 5 C-5.99 4.67 -6.98 4.34 -8 4 C-8 3.01 -8 2.02 -8 1 C-5.29120665 -0.35439668 -2.99066732 -0.06501451 0 0 Z " fill="#CDD1DA" transform="translate(276,28)"/>
<path d="M0 0 C0.99 0 1.98 0 3 0 C2.67 2.64 2.34 5.28 2 8 C0.68 7.34 -0.64 6.68 -2 6 C-1.125 1.125 -1.125 1.125 0 0 Z " fill="#071625" transform="translate(218,22)"/>
<path d="M0 0 C-3.87684087 1.19287411 -6.91621923 2 -11 2 C-10.67 1.01 -10.34 0.02 -10 -1 C-3.375 -2.25 -3.375 -2.25 0 0 Z " fill="#062039" transform="translate(274,23)"/>
<path d="M0 0 C0 0.66 0 1.32 0 2 C-2.5 3.625 -2.5 3.625 -5 5 C-6.32 4.01 -7.64 3.02 -9 2 C-5.86501708 0.14223235 -3.62528568 -0.20140476 0 0 Z " fill="#EEEEEE" transform="translate(146,16)"/>
<path d="M0 0 C2 1 4 2 6 3 C5.67 3.66 5.34 4.32 5 5 C3.02 5 1.04 5 -1 5 C-1.33 4.01 -1.66 3.02 -2 2 C-1.34 2 -0.68 2 0 2 C0 1.34 0 0.68 0 0 Z " fill="#DBDBE1" transform="translate(210,65)"/>
<path d="M0 0 C3.36720387 1.39332574 4.9859524 2.9789286 7 6 C5.68 6.33 4.36 6.66 3 7 C0 2.25 0 2.25 0 0 Z " fill="#DDE0E6" transform="translate(385,53)"/>
<path d="M0 0 C0.33 0 0.66 0 1 0 C1.3125 2.6875 1.3125 2.6875 1 6 C-1.5 8.875 -1.5 8.875 -4 11 C-3.25 6.25 -3.25 6.25 -1 4 C-0.3574765 1.93125966 -0.3574765 1.93125966 0 0 Z " fill="#CDD4DE" transform="translate(188,38)"/>
<path d="M0 0 C0.66 0 1.32 0 2 0 C1.67 1.65 1.34 3.3 1 5 C-0.32 5.33 -1.64 5.66 -3 6 C-1.125 1.125 -1.125 1.125 0 0 Z " fill="#FBFBEB" transform="translate(75,19)"/>
<path d="M0 0 C2.97 0 5.94 0 9 0 C9 0.66 9 1.32 9 2 C8.34 2 7.68 2 7 2 C6.67 2.66 6.34 3.32 6 4 C6 3.34 6 2.68 6 2 C4.68 2.33 3.36 2.66 2 3 C1.34 2.01 0.68 1.02 0 0 Z " fill="#06131F" transform="translate(267,53)"/>
<path d="M0 0 C2.56687367 3.8503105 1.83288724 5.58569763 1 10 C0.67 8.68 0.34 7.36 0 6 C-0.66 6 -1.32 6 -2 6 C-1.49396008 3.83125748 -1.00016187 2.00032373 0 0 Z " fill="#1F2942" transform="translate(246,32)"/>
<path d="M0 0 C1.32 0 2.64 0 4 0 C4.33 1.32 4.66 2.64 5 4 C3.35 4 1.7 4 0 4 C0 2.68 0 1.36 0 0 Z " fill="#00C9ED" transform="translate(64,50)"/>
<path d="M0 0 C6.75 0.75 6.75 0.75 9 3 C2.25 3.125 2.25 3.125 0 2 C0 1.34 0 0.68 0 0 Z " fill="#041225" transform="translate(173,27)"/>
<path d="M0 0 C2.31 0 4.62 0 7 0 C7 0.66 7 1.32 7 2 C5.02 2.99 3.04 3.98 1 5 C0.67 3.35 0.34 1.7 0 0 Z " fill="#EBEEF0" transform="translate(256,18)"/>
<path d="M0 0 C0 1.65 0 3.3 0 5 C-2.31 4.01 -4.62 3.02 -7 2 C-4.35261084 0.5393715 -3.10551666 0 0 0 Z " fill="#CFD6DF" transform="translate(189,17)"/>
<path d="M0 0 C0.99 1.32 1.98 2.64 3 4 C2.34 5.32 1.68 6.64 1 8 C-1 5 -1 5 -0.625 2.3125 C-0.41875 1.549375 -0.2125 0.78625 0 0 Z " fill="#D4D9DE" transform="translate(237,70)"/>
<path d="M0 0 C1.32 0.33 2.64 0.66 4 1 C4 2.65 4 4.3 4 6 C3.34 6 2.68 6 2 6 C0 3 0 3 0 0 Z " fill="#1F2738" transform="translate(456,56)"/>
<path d="M0 0 C1.125 1.5625 1.125 1.5625 2 4 C1.125 7.75 1.125 7.75 0 11 C-0.33 11 -0.66 11 -1 11 C-1.125 3.375 -1.125 3.375 0 0 Z " fill="#132234" transform="translate(244,41)"/>
<path d="M0 0 C1 3 1 3 0.1875 5.125 C-1 7 -1 7 -3 8 C-3 6.02 -3 4.04 -3 2 C-2.01 2 -1.02 2 0 2 C0 1.34 0 0.68 0 0 Z " fill="#021027" transform="translate(246,36)"/>
<path d="M0 0 C1.65 0.33 3.3 0.66 5 1 C4.01 1.33 3.02 1.66 2 2 C2 2.66 2 3.32 2 4 C0.35 4 -1.3 4 -3 4 C-3 3.34 -3 2.68 -3 2 C-2.01 2 -1.02 2 0 2 C0 1.34 0 0.68 0 0 Z " fill="#021125" transform="translate(355,26)"/>
</svg>
